<?xml version="1.0" encoding="utf-8"?>
<!-- Generator: Adobe Illustrator 16.0.0, SVG Export Plug-In . SVG Version: 6.00 Build 0)  -->
<!DOCTYPE svg PUBLIC "-//W3C//DTD SVG 1.1//EN" "http://www.w3.org/Graphics/SVG/1.1/DTD/svg11.dtd">
<svg version="1.1" xmlns="http://www.w3.org/2000/svg" xmlns:xlink="http://www.w3.org/1999/xlink" x="0px" y="0px" width="1000px"
	 height="800px" viewBox="0 0 1000 800" enable-background="new 0 0 1000 800" xml:space="preserve">
<g id="background">
	<rect y="0.001" fill="#FFFFFF" width="1000" height="800"/>
</g>
<g id="shadow">
	<path fill="#F1F2F2" d="M936.342,646.305H159.806c-24.562,0-44.659,9.179-44.659,20.397l0,0c0,7.769,9.64,14.557,23.722,17.998
		h-68.38c-24.563,0-44.659,9.18-44.659,20.398l0,0c0,11.219,20.097,20.397,44.659,20.397h23.827
		c-6.655,3.564-10.692,8.175-10.692,13.198v8.159c0,11.219,20.096,20.398,44.658,20.398h764.977c24.563,0,44.659-9.18,44.659-20.398
		v-8.159c0-11.218-20.097-20.397-44.659-20.397l-52.014,0.453c3.962,0,10.395-1.428,14.711-4.298
		c7.567-5.032,7.903-12.691,4.203-19.032c-2.398-4.109-6.241-7.369-15.763-8.595l91.945,0.275c24.563,0,44.658-9.18,44.658-20.398
		l0,0C981,655.483,960.904,646.305,936.342,646.305z"/>
</g>
<g id="object">
	<g>
		<g>
			<g>
				<g>
					<path fill="#D34E4E" d="M324.277,92.223c-18.497,2.119-39.481,16.366-41.872,32.991c-8.541-14.462-38.362-18.502-56.273-13.418
						c-47.265,13.417-52.928,70.207-25.433,102.204c14.798,17.221,33.906,31.058,54.104,42.881
						c16.915,9.9,59.387,29.594,59.481,29.479c0.131,0.07,31.906-34.312,43.776-49.906c14.176-18.624,26.575-38.693,33.702-60.252
						C405.004,136.145,373.091,86.633,324.277,92.223z"/>
				</g>
			</g>
			<g opacity="0.12">
				<g>
					<path d="M383.324,182.601c-9.111,16.833-20.289,33.153-33.034,47.79c-12.325,14.154-27.436,27.35-45.557,34.345
						c-8.704,3.36-17.576,4.889-26.312,4.62c17.662,8.795,36.708,17.591,36.771,17.514c0.131,0.07,31.905-34.312,43.776-49.907
						c14.176-18.623,26.575-38.693,33.701-60.252c2.306-6.976,3.239-14.238,2.955-21.446
						C392.304,164.645,388.1,173.777,383.324,182.601z"/>
				</g>
			</g>
			<g>
				<g>
					<path fill="#FFFFFF" d="M379.512,167.533c-12.517,2.808-25.033,5.615-37.549,8.423c-7.819-15.614-15.639-31.228-23.459-46.842
						c-1.13-2.257-4.642-1.376-4.953,0.98c-4.052,30.674-8.104,61.347-12.156,92.021c-0.235,1.776-0.47,3.553-0.704,5.33
						c-10.367-17.613-20.733-35.227-31.099-52.84c-1.663-2.825-3.325-5.65-4.988-8.475c-1.002-1.703-4.165-1.831-4.809,0.351
						c-2.995,10.146-5.99,20.292-8.985,30.439c-14.078,2.785-28.155,5.57-42.233,8.355c-3.305,0.654-2.354,5.491,0.957,4.835
						c14.608-2.89,29.216-5.78,43.824-8.67c0.855-0.169,1.737-0.811,1.981-1.636c2.566-8.695,5.133-17.39,7.7-26.085
						c10.635,18.07,21.27,36.14,31.905,54.21c1.663,2.825,3.325,5.649,4.987,8.474c1.248,2.119,4.628,1.488,4.954-0.979
						c4.052-30.674,8.104-61.347,12.156-92.021c0.193-1.467,0.388-2.935,0.581-4.402c6.835,13.648,13.67,27.297,20.506,40.945
						c0.475,0.948,1.723,1.533,2.827,1.285c13.172-2.954,26.342-5.909,39.513-8.864
						C383.751,171.632,382.808,166.794,379.512,167.533z"/>
				</g>
			</g>
		</g>
		<g>
			<g>
				<path fill="#3B455A" d="M753.129,164.666L753.129,164.666c-0.254,0.542-0.898,0.776-1.439,0.523l-42.211-19.703
					c-0.543-0.253-0.777-0.898-0.523-1.44l0,0c0.252-0.542,0.897-0.777,1.439-0.523l42.211,19.703
					C753.147,163.479,753.382,164.124,753.129,164.666z"/>
			</g>
			<g>
				<path fill="#8EC3CB" d="M760.62,165.023l-2.356,5.049l-22.529-10.517c-1.395-0.651-1.997-2.309-1.347-3.702l0,0
					c0.65-1.395,2.309-1.997,3.702-1.346L760.62,165.023z"/>
			</g>
			<g>
				<g>
					<g>
						<path fill="#474EBB" d="M942.872,245.354l-3.206,6.112l-27.133-14.232l-9.696,18.486l27.133,14.232l-3.207,6.112
							c-1.296,2.47-0.343,5.523,2.127,6.818c2.47,1.296,5.522,0.344,6.818-2.126l16.109-30.71c1.295-2.47,0.343-5.522-2.127-6.818
							S944.168,242.884,942.872,245.354z"/>
					</g>
					<g opacity="0.12">
						<polygon points="918.341,263.852 928.038,245.366 935.293,249.172 920.329,264.895 						"/>
					</g>
				</g>
				<g>
					<path fill="#3B455A" d="M934.746,232.578l-23.075,43.991c-0.711,1.355-2.386,1.877-3.74,1.167l-10.666-5.595l25.649-48.897
						l10.666,5.594C934.935,229.548,935.457,231.223,934.746,232.578z"/>
				</g>
				<g>
					<g>
						<path fill="#8EC3CB" d="M932.595,210.065c-2.261-1.006-4.919,0.04-6.068,2.232l-1.884,3.591
							c-1.172,2.235-3.935,3.096-6.17,1.924L795.127,153.11c-1.486-0.779-3.198-1.013-4.84-0.662l-35.308,7.566
							c-0.668,0.143-1.237,0.577-1.553,1.183l-3.655,7.019c-0.315,0.604-0.345,1.316-0.082,1.945l13.9,33.193
							c0.646,1.541,1.808,2.809,3.287,3.584l123.357,64.707c2.235,1.173,3.097,3.935,1.924,6.17l-1.883,3.591
							c-1.15,2.191-0.5,4.973,1.613,6.262c2.314,1.412,5.303,0.56,6.542-1.804l36.399-69.391
							C936.069,214.109,935.072,211.167,932.595,210.065z"/>
					</g>
					<g opacity="0.17">
						<path fill="#DBE8EB" d="M795.311,160.206c-1.418-0.744-3.008-1.049-4.495-0.864l-31.988,3.988
							c-0.605,0.075-1.102,0.398-1.353,0.881l-2.906,5.589c-0.25,0.481-0.231,1.07,0.052,1.609l14.942,28.459
							c0.693,1.321,1.846,2.449,3.257,3.189l117.679,61.729L795.311,160.206z"/>
					</g>
					<g>
						<g>
							<path fill="#3B455A" d="M832.907,220.655l-8.228,15.685l-3.008-1.578l8.227-15.685c0.082-0.155,0.273-0.215,0.429-0.134
								l2.446,1.283C832.929,220.308,832.988,220.5,832.907,220.655z"/>
						</g>
						<g>
							<path fill="#3B455A" d="M790.91,198.626l-8.228,15.684l-3.008-1.578l8.228-15.685c0.081-0.155,0.273-0.215,0.428-0.134
								l2.446,1.283C790.932,198.278,790.991,198.47,790.91,198.626z"/>
						</g>
						<g>
							<path fill="#3B455A" d="M874.904,242.685l-8.228,15.685l-3.009-1.578l8.228-15.685c0.082-0.155,0.274-0.215,0.429-0.133
								l2.446,1.282C874.926,242.337,874.985,242.529,874.904,242.685z"/>
						</g>
						<g>
							<path fill="#3B455A" d="M849.575,239.268l-4.167,7.945l-2.468-1.295l4.167-7.944c0.066-0.128,0.225-0.177,0.352-0.11
								l2.007,1.052C849.594,238.983,849.643,239.141,849.575,239.268z"/>
						</g>
						<g>
							<path fill="#3B455A" d="M807.578,217.238l-4.167,7.945l-2.468-1.295l4.167-7.945c0.067-0.127,0.225-0.176,0.352-0.109
								l2.007,1.053C807.596,216.953,807.646,217.111,807.578,217.238z"/>
						</g>
					</g>
				</g>
			</g>
		</g>
		<g>
			<g>
				<g>
					<g>
						<g>
							<polygon fill="#CCD2D9" points="412.651,516.976 407.454,588.09 390.247,705.824 377.016,705.824 368.659,597.189 
								364.958,509.297 							"/>
						</g>
					</g>
					<g>
						<g>
							<polygon fill="#3B455A" points="377.092,704.25 377.092,711.404 391.4,718.559 398.554,711.404 391.4,704.25 							"/>
						</g>
					</g>
				</g>
			</g>
			<g>
				<g>
					<g>
						<g>
							<polygon fill="#CCD2D9" points="318.929,500.216 323.958,599.898 335.472,714.334 349.023,714.334 360.038,605.912 
								376.128,491.794 							"/>
						</g>
					</g>
					<g>
						<g>
							<polygon fill="#3B455A" points="348.946,712.721 348.946,720.049 334.291,727.376 326.963,720.049 334.291,712.721 							
								"/>
						</g>
					</g>
				</g>
			</g>
			<g>
				<g>
					<g>
						<path fill="#EFBFA5" d="M365.117,340.391c-4.623-0.452-9.246-0.904-13.869-1.356c-0.05-3.704,0.196-7.413,0.736-11.077
							c-3.854-1.35-8.31-3.375-8.986-7.402c-0.213-1.269,0.005-2.566,0.222-3.833c0.898-5.242,1.797-10.483,2.695-15.724
							c0.311-1.813,0.642-3.679,1.625-5.233c1.726-2.727,5.081-3.924,8.26-4.48c8.113-1.42,16.958,0.326,23.256,5.632
							c1.676,1.412,3.193,3.11,3.934,5.173c1.143,3.181,0.296,6.692-0.558,9.962c-0.788,3.018-1.576,6.036-2.364,9.054
							c-0.906,3.472-2.217,7.418-5.559,8.724c-1.774,0.693-3.871,0.494-5.477,1.52C366.2,333.156,366.588,337.37,365.117,340.391z"
							/>
					</g>
				</g>
				<g>
					<g>
						<path fill="#3B455A" d="M397.58,286.805c0.408-4.285,0.624-7.816-0.263-12.01c-0.519-2.457-3.66-10.19-2.705-12.373
							c-1.786,3.785-6.604,4.83-10.769,5.246c-15.605,1.558-33.019-2.301-47.366,5.708c-2.62,1.462-4.708,3.745-6.336,6.266
							c-5.637,8.732-5.652,20.764-0.037,29.511c1.26,1.962,2.767,3.755,4.35,5.468c3.277,3.544,7.197,7.922,11.7,9.23
							c0.102-4.027-3.583-16.719-0.495-20.024c4.335-4.638,12.22-3.734,17.854-2.932c7.234,1.03,14.266,0.965,21.567,0.114
							c2.35-0.274,4.735-0.557,6.917-1.469c5.223-2.183,5.04-7.035,5.509-11.991C397.531,287.312,397.555,287.063,397.58,286.805z"
							/>
					</g>
				</g>
			</g>
			<g>
				<g>
					<g>
						<g>
							<polygon fill="#EFBFA5" points="273.432,280.795 271.75,272.185 276.17,265.835 275.3,264.215 273.262,265.205 
								275.423,258.885 273.501,253.815 266.526,251.974 259.673,254.903 258.578,262.022 261.688,270.004 263.481,281.891 							
								"/>
						</g>
					</g>
				</g>
				<g>
					<g>
						<polygon fill="#EBB044" points="274.53,274.72 261.31,273.894 267.212,346.026 323.336,375.708 336.266,340.675 
							291.897,320.267 						"/>
					</g>
				</g>
			</g>
			<g>
				<g>
					<g>
						<g>
							<polygon fill="#EFBFA5" points="425.964,249.451 426.413,240.689 421.14,235.028 421.772,233.301 423.93,233.993 
								420.898,228.041 422.084,222.752 428.729,219.943 435.928,221.875 438.017,228.769 436.065,237.109 435.97,249.13 							"/>
						</g>
					</g>
				</g>
				<g>
					<g>
						<polygon fill="#EBB044" points="424.019,243.592 436.989,240.906 438.017,290.811 432.92,329.381 399.751,378.061 
							372.595,338.772 404.125,315.601 						"/>
					</g>
				</g>
			</g>
			<g>
				<g>
					<polygon fill="#EBB044" points="376.099,336.823 332.281,338.679 310.163,422.868 291.897,539.58 432.92,543.009 
						399.751,378.061 					"/>
				</g>
			</g>
		</g>
		<g>
			<g>
				<g>
					<g>
						<polygon fill="#C1796B" points="593.4,306.704 591.789,298.29 596.128,292.107 595.284,290.521 593.291,291.48 
							595.424,285.317 593.565,280.361 586.763,278.537 580.061,281.372 578.965,288.319 581.973,296.124 583.68,307.736 						"/>
					</g>
				</g>
				<g>
					<polygon fill="#474EBB" points="593.846,297.875 580.608,309.125 582.487,366.896 604.753,382.403 647.305,376.952 
						641.628,340.391 606.086,347.235 					"/>
				</g>
			</g>
			<g>
				<g>
					<g>
						<polygon fill="#3B455A" points="729.467,700.523 731.131,708.158 717.942,719.029 708.853,713.014 714.614,703.761 
							727.803,692.89 						"/>
					</g>
					<g>
						<polygon fill="#474EBB" points="683.346,465.787 698.061,499.722 699.449,595.197 729.707,697.895 715.638,704.134 
							653.891,584.889 646.863,547.119 644.07,467.574 						"/>
					</g>
				</g>
				<g>
					<g>
						<polygon fill="#474EBB" points="612.096,473.393 610.939,573.451 629.795,702.461 644.293,702.461 653.449,583.422 
							673.29,464.383 						"/>
					</g>
					<g>
						<polygon fill="#3A332D" points="644.209,700.735 644.209,708.574 628.531,716.414 620.691,708.574 628.531,700.735 						"/>
					</g>
				</g>
			</g>
			<g>
				<path fill="#474EBB" d="M640.647,337.904l38.512-1.426c0,0,23.039,20.215,34.946,72.746
					c12.124,53.488-2.239,130.491-2.239,130.491s-103.323-13.771-120.265-15.898l25.847-105.609L640.647,337.904z"/>
			</g>
			<g>
				<g>
					<path fill="#C1796B" d="M654.448,341.839c4.498-0.44,8.995-0.879,13.493-1.319c0.048-3.604-0.192-7.21-0.717-10.776
						c3.749-1.313,8.083-3.283,8.741-7.201c0.208-1.234-0.004-2.496-0.216-3.729c-0.874-5.099-1.748-10.198-2.621-15.296
						c-0.303-1.763-0.625-3.579-1.581-5.09c-1.679-2.653-4.942-3.817-8.035-4.358c-7.893-1.381-16.497,0.317-22.624,5.479
						c-1.631,1.374-3.106,3.026-3.827,5.033c-1.111,3.094-0.288,6.51,0.543,9.69c0.767,2.937,1.534,5.873,2.301,8.809
						c0.882,3.377,2.156,7.216,5.407,8.487c1.726,0.675,3.766,0.481,5.327,1.478C653.395,334.802,653.018,338.901,654.448,341.839z"
						/>
				</g>
				<g>
					<path fill="#3B455A" d="M610.51,290.879c-0.087-3.495,0.404-7.032,1.103-10.22c1.2-5.477,7.662-7.938,13.255-8.327
						c12.082-0.838,23.74-6.315,35.538-2.088c6.744,2.417,15.801,2.997,21.903,6.403c2.549,1.423,4.581,3.644,6.164,6.096
						c5.484,8.495,5.498,20.199,0.035,28.708c-1.226,1.909-2.69,3.654-4.231,5.319c-3.188,3.448-7.001,7.706-11.382,8.979
						c-0.099-3.917,3.486-16.264,0.482-19.479c-4.767-5.101-15.564-3.338-21.488-2.092c-6.461,1.359-12.226,5.926-18.632,6.896
						c-4.609,0.697-10.487-1.571-14.403-3.958C612.717,303.376,610.668,297.194,610.51,290.879z"/>
				</g>
			</g>
			<g>
				<path fill="#FFFFFF" d="M651.27,342.666l-40.487,161.948l-3.318,21.239l50.443,6.637c0,0-1.991-77.551-1.328-87.891
					c0.664-10.34,8.145-32.704,9.292-56.8c0.664-13.938,5.092-38.974,1.991-47.125L651.27,342.666z"/>
			</g>
		</g>
		<g>
			<g>
				<polygon fill="#3B455A" points="116.527,705.866 116.319,708.035 115.627,715.234 101.054,721.478 94.804,713.801 
					102.437,707.08 103.141,706.778 103.226,707.674 				"/>
			</g>
			<g>
				<path fill="#C1796B" d="M117.269,705.766l-0.741,0.101h-0.777l-12.524,1.808L91.604,585.255l-1.42-5.741
					c10.903,0.16,23.86,0.322,36.916,0.426L117.269,705.766z"/>
			</g>
			<g>
				<path fill="#C1796B" d="M175.546,579.876l-2.683,31.809l-26.906,82.472l-13.145-1.748l-0.214,1.612l-0.074-0.01l9.687-84.991
					l-8.295-29.032C149.174,580.081,164.098,580.078,175.546,579.876z"/>
			</g>
			<g>
				<polygon fill="#3B455A" points="145.957,694.156 146.785,694.266 152.798,702.519 144.838,708.914 131.839,699.732 
					132.598,694.021 145.444,695.729 				"/>
			</g>
			<g>
				<polygon fill="#3E3D3B" points="145.957,694.156 145.444,695.729 132.598,694.021 132.812,692.408 				"/>
			</g>
			<g>
				<path fill="#8EC3CB" d="M84.373,394.92c-1.689,7.959-7.988,13.796-14.137,19.322c4.537-11.638,9.246-21.895,13.773-30.753
					C84.821,387.295,85.184,391.097,84.373,394.92z"/>
			</g>
			<g>
				<path fill="#8EC3CB" d="M61.581,579.033c0,0,11.886,0.236,28.602,0.48c10.903,0.16,23.86,0.322,36.916,0.426
					c2.273,0.018,4.549,0.033,6.816,0.047c15.259,0.095,30.183,0.092,41.63-0.11c8.65-0.153,15.317-0.419,18.641-0.843
					l-27.911-144.382l-0.11-0.446l-7.424-30.224l-10.826-44.067l-26.988-12.861c-2.875-0.461-5.472-1.77-7.702-3.67l-0.979-0.467
					c0.313,1.238,0.692,2.393,1.147,3.427c0.186,0.423,0.384,0.827,0.594,1.21c2.251,4.103,5.732,7.955,5.646,12.635
					c-0.017,0.868-0.163,1.718-0.379,2.555c-0.393,1.523-1.024,3.005-1.588,4.481c-5.99,15.688,0.596,33.401,10.337,46.658
					c4.99,6.789,11.579,12.676,14.422,20.607c0.488,1.362,0.794,2.816,0.931,4.297c0.662,7.147-2.704,14.932-9.586,16.097
					c-1.62,0.274-3.341,0.167-4.831,0.859c-5.086,2.363-2.887,10.702-6.651,14.859c-2.432,2.686-6.545,2.78-10.167,2.677
					c-1.185-0.035-2.438-0.088-3.431-0.736c-2.116-1.381-1.912-4.455-2.536-6.902c-1.13-4.436-5.559-7.348-10.03-8.328
					s-9.113-0.459-13.691-0.452c-5.718,0.009-11.565-0.839-16.608-3.536c-1.98-1.058-3.818-2.438-5.383-4.061
					C51.424,504.415,61.581,579.033,61.581,579.033z"/>
			</g>
			<g>
				<path fill="#C1796B" d="M112.111,342.354c-2.531-10.959,0.211-28.274,7.539-34.735c2.88-2.54,6.173-3,9.844-3.028
					c1.735-0.013,2.315,0.436,3.21,0.278c2.731,3.514,4.561,7.8,4.225,11.854c-0.283,3.412-2.248,6.014-2.406,9.678
					c-0.312,6.67-9.85,13.367-6.186,19.991c-2.618,0.854-5.104,1.031-7.409,0.661l-7.702-3.67
					C112.844,343.056,112.472,342.713,112.111,342.354z"/>
			</g>
			<g>
				<path fill="#E1CFB5" d="M120.929,347.053c-2.876-0.461-5.473-1.771-7.702-3.67L120.929,347.053z"/>
			</g>
			<g>
				<path fill="#C1796B" d="M134.523,326.4c0.158-3.664,2.124-6.266,2.406-9.678c0.336-4.055-1.494-8.341-4.225-11.854
					c0.402-0.07,0.867-0.263,1.529-0.675c1.314-0.818,2.486-2.959,3.102-4.705c3.405,2.154,5.882,6.042,6.565,11.965
					c0.742,6.438,0.73,13.23-1.476,19.672s-6.917,12.5-13.026,14.89c-0.356,0.139-0.709,0.262-1.061,0.376
					C124.674,339.768,134.212,333.07,134.523,326.4z"/>
			</g>
			<g>
				<path fill="#3B455A" d="M55.671,440.233c0.584,3.425,2.349,6.521,4.771,9.03c0.193-1.181,0.395-2.353,0.606-3.515
					c-0.211,1.162-0.413,2.334-0.606,3.515c1.565,1.623,3.403,3.003,5.383,4.062c5.043,2.696,10.89,3.544,16.609,3.535
					c4.578-0.007,9.219-0.528,13.69,0.452c4.472,0.98,8.9,3.893,10.03,8.328c0.624,2.447,0.42,5.521,2.536,6.902
					c0.993,0.647,2.246,0.701,3.431,0.735c3.622,0.104,7.735,0.01,10.167-2.676c3.765-4.157,1.565-12.496,6.651-14.859
					c1.49-0.692,3.211-0.585,4.831-0.859c6.882-1.164,10.248-8.949,9.586-16.097c-0.137-1.48-0.442-2.935-0.931-4.296
					c-2.843-7.933-9.432-13.819-14.422-20.608c-9.741-13.257-16.328-30.969-10.338-46.658c0.564-1.476,1.196-2.958,1.589-4.481
					c0.216-0.837,0.362-1.687,0.378-2.555c0.087-4.68-3.395-8.532-5.646-12.635c-0.21-0.383-0.408-0.787-0.594-1.21
					c-0.455-1.035-0.834-2.189-1.147-3.427c-0.047-0.186-0.093-0.373-0.137-0.563c-6.909-6.891-9.678-19.693-5.13-29.259
					c0.258-0.543,0.532-1.076,0.822-1.596c-0.29,0.52-0.564,1.052-0.822,1.596c-4.548,9.566-1.779,22.368,5.13,29.259
					c-2.53-10.959,0.212-28.274,7.54-34.735c2.88-2.54,6.173-3,9.844-3.028c1.735-0.013,2.315,0.436,3.21,0.278
					c0.402-0.07,0.867-0.263,1.529-0.676c1.315-0.817,2.486-2.959,3.102-4.704c3.405,2.153,5.882,6.042,6.565,11.965
					c0.742,6.438,0.73,13.23-1.476,19.672c-2.207,6.442-6.917,12.5-13.026,14.891c-0.356,0.139-0.709,0.262-1.061,0.376
					c0.304,0.549,0.687,1.098,1.186,1.646c3.345,3.68,8.714,4.535,13.646,5.172c0.598,0.077,1.226,0.151,1.788-0.068
					c0.925-0.36,1.401-1.431,1.409-2.424c0.007-0.993-0.349-1.946-0.623-2.9c-2.866-9.981,2.212-21.382,3.059-31.444
					c0.845-10.043-1.228-20.972-9.288-27.761c-1.368,0.375-2.696,0.89-3.964,1.524c-0.126-0.168-0.255-0.333-0.39-0.494
					c-11.667-14.011-28.142-2.033-37.004,8.666c-7.306,8.82-13.396,18.947-16.189,30.139c-2.612,10.467-3.484,25.849-2.379,36.548
					c0.645,6.247,3.115,12.376,4.421,18.493c0.813,3.806,1.175,7.608,0.364,11.431c-1.689,7.959-7.988,13.796-14.137,19.322
					c-0.561,1.437-1.118,2.893-1.672,4.369s-1.105,2.974-1.651,4.494c-0.353,0.979-0.694,1.975-1.024,2.985
					c0.331-1.011,0.671-2.007,1.024-2.985c0.546-1.521,1.097-3.018,1.651-4.494s1.111-2.933,1.672-4.369
					c-0.851,0.765-1.699,1.523-2.531,2.28C60.854,422.756,54.114,431.104,55.671,440.233z M117.023,301.551
					c0.909-0.602,1.841-1.142,2.788-1.619C118.864,300.409,117.932,300.949,117.023,301.551z"/>
			</g>
		</g>
		<g>
			<g>
				<g>
					<g>
						<polygon fill="#EFBFA5" points="801.79,522.059 858.662,501.144 846.94,600.773 853.732,686.729 854.334,692.197 
							854.334,692.197 854.334,692.197 843.158,692.491 843.158,692.491 843.158,692.491 817.105,612.027 803.846,530.453 
							803.846,530.453 						"/>
					</g>
					<g>
						<polygon fill="#3B455A" points="843.158,692.491 854.794,692.197 857.766,702.015 857.472,702.102 857.546,702.11 
							838.311,713.508 829.164,714.525 828.002,704.072 830.473,702.262 						"/>
					</g>
				</g>
				<g>
					<g>
						<polygon fill="#EFBFA5" points="763.051,523.77 780.52,698.359 791.765,700.012 802.687,602.758 822.291,511.024 						"/>
					</g>
					<g>
						<polygon fill="#3B455A" points="780.147,698.316 765.237,706.771 766.635,713.807 793.277,709.791 791.71,699.653 						"/>
					</g>
				</g>
				<g>
					<g>
						<g>
							<path fill="#D34E4E" d="M736.387,566.61c-3.6-2.499-3.676-6.85-3.67-11.207c0.012-8.183,1.483-16.547,3.359-24.499
								c3.571-14.917,7.62-32.884,9.4-52.214c4.602-49.957,20.377-83.481,20.377-83.481l5.091-13.575
								c1.012-1.766,2.062-3.511,3.157-5.23c6.358-9.978,17.397-26.932,29.205-29.708c0.246-0.058,0.494-0.114,0.744-0.169
								c12.412-2.725,28.319-1.46,39.537,4.575c2.129,1.145,4.021,2.67,5.901,4.186c5.485,4.425,9.959,6.821,12.323,13.564
								c2.054,5.854,2.531,12.243,3.663,18.31c2.3,12.327,3.672,24.8,5.509,37.199c3.443,23.25,6.369,46.575,10.053,69.79
								c1.896,11.947,3.807,23.916,4.702,35.988c0.792,10.674,10.421,21.513,15.832,31.079c1.884,3.329-25.16,11.954-27.583,12.519
								c-11.219,2.611-23.151,1.944-34.716,1.997c-25.343,0.114-50.688-0.667-75.976-2.343c-8.402-0.557-18.758-2.161-26.214-6.345
								C736.837,566.908,736.605,566.763,736.387,566.61z"/>
						</g>
					</g>
					<g>
						<path fill="#FFFFFF" d="M817.97,345.16c0,0,14.275-3.854,16.247,28.356c1.973,32.21,5.26,113.72,9.86,136.069
							c4.602,22.35,11.503,66.188,11.503,66.188l-43.713,1.519l-49.957-3.944c0,0,17.09-31.553,19.72-53.901
							c2.63-22.35-1.972-106.489,9.202-138.042C802.008,349.853,804.353,345.728,817.97,345.16z"/>
					</g>
					<g>
						<g>
							<polygon fill="#D34E4E" points="753.364,416.901 730.566,413.385 730.566,393.746 785.574,351.824 803.322,346.565 
								794.776,369.572 							"/>
						</g>
					</g>
				</g>
				<g>
					<g>
						<g>
							<path fill="#3B455A" d="M798.061,319.642c-2.16,6.485,0.965,13.401,3.709,19.311c2.434,5.241,3.28,8.691-2.897,10.105
								c-3.48,0.797-9.657,2.284-12.71-0.381c-2.312-2.019-1.013-8.254,0.111-10.731c0.859-1.892,3.133-2.852,3.941-4.765
								c0.332-0.789,0.381-1.666,0.393-2.522c0.049-3.496-0.436-7-1.43-10.353c-0.675-2.276-1.589-4.513-1.793-6.878
								c-0.295-3.43,2.131-7.428,3.405-10.58c2.371-5.864,10.626-13.73,17.538-9.126c1.574,1.048,2.49,2.82,3.256,4.549
								c0.458,1.032,0.893,2.109,0.906,3.238c0.053,4.502-4.058,5.262-6.896,7.405C802.092,311.556,799.438,315.503,798.061,319.642
								z"/>
						</g>
						<g>
							<path fill="#EFBFA5" d="M811.206,344.948c-5.995-1.412-10.683-6.446-12.935-12.179c-2.253-5.732-2.37-12.09-1.748-18.217
								c2.073-20.391,27.439-19.083,36.029-3.454C840.038,324.719,828.639,349.055,811.206,344.948z"/>
						</g>
					</g>
					<g>
						<path fill="#EFBFA5" d="M811.213,342.751c0.1,2.323,0.201,4.646,0.301,6.968c0.016,0.34,0.043,0.713,0.281,0.957
							c0.271,0.277,0.708,0.283,1.096,0.269c1.893-0.065,3.785-0.131,5.678-0.196c0.938-0.032,1.914-0.074,2.742-0.519
							c1.81-0.972,2.184-3.426,1.896-5.46c-0.289-2.035-1.019-4.084-0.587-6.094c-3.909,1.926-7.622-2.426-11.53-0.5
							L811.213,342.751z"/>
					</g>
				</g>
				<g>
					<path fill="#3B455A" d="M819.393,279.2c6.661,2.263,10.932,9,17.432,11.689c3.728,1.543,8.139,1.739,11.18,4.39
						c6.816,5.94,1.338,18.405,6.938,25.503c1.164,1.476,2.733,2.591,3.902,4.063c2.521,3.175,2.852,7.509,3.076,11.557
						c0.051,0.911,0.061,1.903-0.098,2.82c-0.876,9.349-14.447,8.754-19.839,8.155c-5.916-0.658-3.944-3.944-3.944-3.944
						l0.216-0.263c0.567-3.795-0.994-7.844-3.977-10.262c-1.106-0.897-2.415-1.612-3.195-2.804c-1.752-2.675-0.079-6.22-0.337-9.407
						c-1.037-12.837-22.582-10.086-28.662-19.226C794.628,290.265,806.814,274.927,819.393,279.2z"/>
				</g>
			</g>
		</g>
		<g>
			<g>
				<g>
					<polygon fill="#EFBFA5" points="872.354,261.611 864.106,250.071 859.021,253.382 862.92,262.534 859.787,262.983 
						868.048,271.999 873.799,269.271 					"/>
				</g>
			</g>
			<g>
				<g>
					<polygon fill="#D34E4E" points="837.44,360.083 880.584,325.235 864.57,271.999 880.482,265.521 910.146,335.72 
						866.945,390.222 					"/>
				</g>
			</g>
		</g>
		<g>
			<polygon fill="#EFBFA5" points="778.505,420.172 791.39,418.042 790.72,412.495 781.572,412 782.473,409.229 771.669,412.396 
				771.588,418.256 			"/>
		</g>
		<g>
			<g>
				<polygon fill="#D34E4E" points="743.502,399.331 743.434,400.452 774.968,410.098 774.212,421.717 730.566,410.523 				"/>
			</g>
		</g>
		<g>
			<g>
				<g>
					<g>
						<g>
							<g>
								<path fill="#D34E4E" d="M671.723,720.2H546.648c-9.88,0-17.889-8.009-17.889-17.888v-84.794
									c0-9.88,8.009-17.888,17.889-17.888h125.074c9.88,0,17.889,8.008,17.889,17.887v84.795
									C689.611,712.191,681.603,720.2,671.723,720.2z"/>
							</g>
							<g>
								<path fill="#D34E4E" d="M644.409,593.075c0-7.706,0-15.413,0-23.119c0-2.089-1.987-3.864-4.337-3.864
									c-18.268,0-36.534,0-54.801,0c-2.613,0-5.227,0-7.84,0c-2.344,0-4.337,1.771-4.337,3.864c0,7.688,0,15.376,0,23.063
									c-3.505,0.102-6.318,3.019-6.318,6.611l0,0h21.252l0,0c0-3.572-2.782-6.475-6.259-6.608c0-6.401,0-12.802,0-19.202
									c16.82,0,33.643,0,50.464,0c1.167,0,2.335,0,3.502,0c0,6.396,0,12.793,0,19.189h-0.435c-3.592,0-6.505,2.964-6.505,6.621
									l0,0h21.251l0,0C650.047,596.274,647.591,593.508,644.409,593.075z"/>
							</g>
						</g>
					</g>
					<g>
						<path fill="#FFFFFF" d="M646.465,647.796c-8.709,0-17.418,0-26.127,0c-0.816,0-1.632,0-2.447,0c0-6.455,0-12.909,0-19.364
							c0-3.238,0-6.477,0-9.715c0-1.08-0.899-1.997-1.962-1.997c-5.413,0-10.825,0-16.238,0c-1.061,0-1.962,0.915-1.962,1.997
							c0,8.862,0,17.726,0,26.588c0,0.83,0,1.66,0,2.491c-6.343,0-12.686,0-19.027,0c-3.184,0-6.365,0-9.547,0
							c-1.061,0-1.963,0.914-1.963,1.996c0,5.508,0,11.017,0,16.524c0,0.612,0.225,1.076,0.563,1.397
							c0.316,0.36,0.781,0.599,1.399,0.599c8.709,0,17.418,0,26.127,0c0.816,0,1.632,0,2.447,0c0,6.455,0,12.909,0,19.363
							c0,3.239,0,6.478,0,9.716c0,1.079,0.898,1.996,1.962,1.996c5.413,0,10.825,0,16.238,0c0.602,0,1.058-0.228,1.373-0.573
							c0.354-0.32,0.589-0.795,0.589-1.423c0-8.863,0-17.726,0-26.589c0-0.83,0-1.66,0-2.49c6.342,0,12.686,0,19.028,0
							c3.182,0,6.364,0,9.546,0c1.062,0,1.962-0.914,1.962-1.996c0-5.508,0-11.017,0-16.524
							C648.427,648.713,647.528,647.796,646.465,647.796z"/>
					</g>
				</g>
			</g>
		</g>
		<g>
			<g>
				<g>
					<g>
						<g>
							<path fill="#3B455A" d="M320.11,397.635c4.413,20.347,24.425,33.274,44.696,28.875c20.271-4.4,33.126-24.46,28.713-44.807
								c-4.414-20.347-24.425-33.274-44.696-28.875C328.552,357.228,315.696,377.288,320.11,397.635z"/>
						</g>
						<g>
							
								<ellipse transform="matrix(-0.9773 0.2121 -0.2121 -0.9773 788.1528 694.8008)" fill="#CCD2D9" cx="356.815" cy="389.668" rx="25.816" ry="25.913"/>
						</g>
						<g>
							
								<rect x="367.849" y="403.657" transform="matrix(-0.9772 0.2122 -0.2122 -0.9772 835.6721 837.79)" fill="#CCD2D9" width="10.065" height="120.158"/>
						</g>
						<g>
							
								<ellipse transform="matrix(-0.9773 0.2121 -0.2121 -0.9773 789.1227 696.4214)" fill="#3B455A" cx="357.212" cy="390.531" rx="8.838" ry="8.87"/>
						</g>
						<g opacity="0.13">
							<path d="M353.607,398.623l6.209,28.624c0,0-5.771,0.32-9.039-0.374l1.265-29.156L353.607,398.623z"/>
						</g>
					</g>
					<g>
						<g>
							<path fill="#7FC5A3" d="M552.977,489.367c-2.186,0.389-4.058,2.272-6.48,2.041c0.541,3.452-0.684-4.567-0.347-1.078
								c0.451,4.664,0.736,9.348,0.847,14.043c0.063,2.661,0.069,5.325,0.014,7.993c-0.009,0.46-0.105,2.959-0.023,1.07
								c-0.03,0.702-0.056,1.405-0.09,2.108c-0.066,1.355-0.149,2.711-0.251,4.067c-0.438,5.901-1.208,11.809-2.41,17.689
								c-0.612,2.987-1.336,5.968-2.192,8.933c-0.449,1.553-0.934,3.103-1.459,4.646c-0.224,0.659-0.463,1.315-0.694,1.974
								c-0.044,0.122-0.119,0.324-0.179,0.481c-0.049,0.124-0.096,0.248-0.145,0.372c-2.297,5.686-5.076,11.268-8.734,16.586
								c-0.446,0.65-0.912,1.291-1.38,1.933c0.485-0.674-0.743,0.956-0.992,1.263c-0.901,1.113-1.846,2.208-2.831,3.28
								c-2.057,2.238-4.313,4.342-6.709,6.367c0.455-0.398-1.442,1.118-1.795,1.376c-0.687,0.503-1.385,0.994-2.096,1.476
								c-1.289,0.871-2.617,1.706-3.982,2.501c-0.92,0.536-1.855,1.054-2.807,1.554c-0.319,0.167-0.647,0.325-0.964,0.497
								c-0.034,0.018-0.063,0.033-0.093,0.05c-0.031,0.014-0.063,0.026-0.098,0.042c-1.544,0.676-3.061,1.376-4.641,1.996
								c-1.985,0.78-4.015,1.484-6.075,2.114c-0.867,0.266-1.739,0.518-2.617,0.757c-0.392,0.106-0.787,0.209-1.181,0.312
								c-0.028,0.006-0.055,0.013-0.078,0.017c-4.227,0.881-8.416,1.691-12.727,2.125c-1.23,0.123-2.458,0.207-3.689,0.295
								c-0.079,0.006-0.159,0.009-0.238,0.014c0.015-0.001-0.045,0.003-0.147,0.008c-0.275,0.015-0.551,0.027-0.825,0.041
								c0.199-0.01,0.361-0.02,0.494-0.025c-0.175,0.007-0.359,0.013-0.482,0.014c-1.853,0.014-3.696,0.015-5.537-0.076
								c-1.973-0.096-3.932-0.267-5.87-0.513c-0.817-0.104-1.623-0.238-2.437-0.351c-0.021-0.002-0.036-0.005-0.055-0.008
								c-0.039-0.008-0.078-0.018-0.123-0.027c-0.345-0.078-0.703-0.139-1.05-0.21c-3.457-0.72-6.806-1.687-10.004-2.87
								c-0.481-0.179-3.443-1.439-1.582-0.603c-0.687-0.309-1.381-0.606-2.061-0.925c-1.44-0.674-2.844-1.391-4.211-2.146
								c-2.77-1.53-5.361-3.223-7.847-5.012c-0.194-0.144-0.451-0.336-0.57-0.431c-0.381-0.303-0.767-0.602-1.145-0.906
								c-0.569-0.459-1.131-0.925-1.684-1.396c-1.178-1.002-2.319-2.031-3.427-3.082c-2.368-2.246-4.582-4.594-6.66-7.014
								c-1.105-1.287-2.173-2.596-3.205-3.922c-0.291-0.373-1.353-1.803-0.758-0.986c-0.424-0.581-0.849-1.162-1.264-1.748
								c-7.271-10.246-12.751-21.305-17.15-32.604c-1.009-2.595-1.961-5.206-2.856-7.832c-0.236-0.691-0.464-1.385-0.696-2.077
								c-0.022-0.065-0.041-0.119-0.057-0.167c-0.025-0.081-0.058-0.185-0.1-0.318c-0.375-1.196-0.749-2.394-1.107-3.594
								c-1.237-4.146-2.346-8.322-3.323-12.524c-0.899-3.863-1.747-7.753-2.305-11.675c-1.097-7.724-16.708-5.504-15.612,2.206
								c0.04,0.272,0.089,0.544,0.125,0.815c0.79,5.896,2.301,11.745,3.84,17.502c2.937,10.988,6.647,21.848,11.435,32.344
								c10.443,22.901,26.928,47.116,56.28,57.73c30.742,11.116,71.182,1.312,92.667-20.785
								c20.301-20.879,25.26-48.158,26.027-72.65c0.369-11.804,1.597-12.3-0.405-23.933
								C559.416,489.682,555.82,488.862,552.977,489.367z M492.618,595.799C493.704,595.518,493.022,595.705,492.618,595.799
								L492.618,595.799z M539.643,553.514C539.62,553.571,539.617,553.58,539.643,553.514L539.643,553.514z"/>
						</g>
					</g>
					<g>
						<g>
							<path fill="#CCD2D9" d="M555.729,251.03c11.24-1.884,22.479-3.768,33.719-5.65c2.397-0.402,4.778,1.297,5.182,3.709
								c4.302,25.683,8.604,51.366,12.905,77.05c0.607,3.623,1.213,7.246,1.82,10.869c0.96,5.731-7.912,7.228-8.873,1.487
								c-4.302-25.684-8.604-51.367-12.904-77.05c-0.358-2.139-0.717-4.277-1.075-6.416c-9.761,1.636-19.521,3.271-29.282,4.907
								C551.512,260.893,550.01,251.988,555.729,251.03z"/>
						</g>
						<g>
							<g>
								<path fill="#3B455A" d="M545.171,266.244l10.237-1.715l-2.982-17.813l-10.239,1.716c-4.146,0.694-6.945,4.618-6.251,8.763
									l0.469,2.801C537.099,264.141,541.023,266.938,545.171,266.244z"/>
							</g>
							<g>
								<path fill="#CCD2D9" d="M554.26,266.145l8.678-1.454c4.791-0.803,8.024-5.337,7.223-10.127l-0.542-3.237
									c-0.802-4.791-5.338-8.023-10.13-7.219l-8.675,1.453L554.26,266.145z"/>
							</g>
						</g>
					</g>
					<g>
						<g>
							<path fill="#CCD2D9" d="M467.685,265.173c-11.24,1.883-22.479,3.766-33.719,5.65c-2.398,0.402-4.095,2.784-3.69,5.196
								c4.302,25.684,8.604,51.367,12.904,77.05c0.606,3.623,1.214,7.246,1.821,10.869c0.959,5.731,9.834,4.254,8.873-1.486
								c-4.302-25.684-8.603-51.367-12.904-77.05c-0.358-2.139-0.717-4.277-1.075-6.416c9.76-1.636,19.521-3.271,29.282-4.907
								C474.886,273.123,473.403,264.215,467.685,265.173z"/>
						</g>
						<g>
							<g>
								<path fill="#3B455A" d="M482.625,276.114l-10.239,1.716l-2.984-17.813l10.238-1.715c4.146-0.695,8.071,2.102,8.767,6.248
									l0.469,2.802C489.57,271.497,486.771,275.419,482.625,276.114z"/>
							</g>
							<g>
								<path fill="#CCD2D9" d="M473.999,278.984l-8.675,1.454c-4.792,0.803-9.329-2.429-10.129-7.22l-0.543-3.237
									c-0.802-4.789,2.432-9.323,7.224-10.126l8.677-1.454L473.999,278.984z"/>
							</g>
						</g>
					</g>
					<g opacity="0.13">
						<path d="M546.53,498.365c0,0,0.638,5.522,1.069,11.928l15.021-9.68l-1.043-6.645L546.53,498.365z"/>
					</g>
					<g>
						<g>
							<path fill="#7FC5A3" d="M612.547,337.187c3.66,16.015,5.305,32.692,5.861,49.075c0.988,29.057-1.684,61.36-18.899,85.829
								c-18.22,25.896-54.713,36.911-83.737,23.245c-27.715-13.048-44.54-42.041-55.723-69.383
								c-5.126-12.532-9.287-25.477-12.748-38.564c-1.812-6.856-3.606-13.822-4.739-20.832c-0.052-0.324-0.118-0.646-0.172-0.97
								c-1.54-9.168,12.655-11.562,14.197-2.378c0.784,4.664,1.833,9.293,2.925,13.892c1.189,5.002,2.497,9.976,3.921,14.917
								c0.412,1.43,0.839,2.856,1.266,4.282c0.566,1.888-0.335-1.036,0.177,0.578c0.261,0.825,0.519,1.652,0.782,2.477
								c1.006,3.13,2.06,6.243,3.168,9.339c4.825,13.478,10.626,26.687,18.018,38.961c0.47,0.781,0.951,1.556,1.431,2.331
								c-0.901-1.456,0.304,0.466,0.616,0.945c1.041,1.589,2.113,3.158,3.218,4.703c2.078,2.904,4.274,5.725,6.606,8.427
								c1.09,1.265,2.212,2.503,3.363,3.71c0.541,0.568,1.089,1.13,1.644,1.684c0.369,0.368,0.744,0.729,1.115,1.094
								c0.301,0.297,1.516,1.396,0.158,0.165c2.53,2.294,5.158,4.464,7.955,6.423c1.309,0.917,2.648,1.79,4.019,2.611
								c0.647,0.389,1.306,0.753,1.958,1.13c-1.768-1.022,1.042,0.52,1.496,0.739c3.021,1.454,6.166,2.652,9.394,3.56
								c0.324,0.092,0.657,0.167,0.979,0.266c1.674,0.508-1.557-0.286,0.165,0.045c0.757,0.146,1.507,0.317,2.265,0.454
								c1.798,0.321,3.61,0.553,5.432,0.698c1.697,0.135,3.392,0.162,5.095,0.176c0.445,0.003,1.747-0.079-0.011,0.013
								c0.369-0.019,0.74-0.027,1.107-0.056c1.127-0.086,2.25-0.165,3.371-0.293c3.933-0.448,7.729-1.346,11.552-2.326
								c0.345-0.089,1.36-0.438-0.205,0.072c0.447-0.146,0.895-0.291,1.34-0.443c0.79-0.271,1.574-0.556,2.353-0.857
								c1.851-0.716,3.667-1.521,5.438-2.416c1.41-0.712,2.755-1.52,4.128-2.298c1.542-0.875-1.272,0.915,0.168-0.107
								c0.279-0.198,0.569-0.381,0.851-0.574c0.841-0.578,1.666-1.179,2.474-1.801c1.2-0.923,2.363-1.894,3.486-2.908
								c0.621-0.559,1.229-1.132,1.825-1.718c0.358-0.352,2.536-2.711,1.172-1.167c2.209-2.501,4.267-5.106,6.108-7.893
								c0.833-1.258,1.623-2.543,2.376-3.85c0.235-0.408,1.504-2.805,0.593-1.031c0.465-0.904,0.928-1.808,1.367-2.726
								c2.995-6.255,5.163-12.838,6.881-19.552c0.087-0.341,0.167-0.684,0.25-1.025c-0.408,1.68-0.104,0.44-0.012,0.018
								c0.167-0.777,0.341-1.553,0.502-2.332c0.375-1.823,0.714-3.654,1.02-5.49c0.582-3.506,1.042-7.032,1.396-10.569
								c0.7-6.961,0.998-13.962,0.993-20.958c-0.001-1.607-0.018-3.216-0.05-4.824c-0.018-0.833-0.043-1.667-0.063-2.501
								c0.056,2.241-0.03-0.724-0.053-1.269c-0.134-3.166-0.323-6.329-0.564-9.487c-0.427-5.575-1.013-11.138-1.75-16.681
								c-0.86-6.471-2.057-12.854-3.241-19.267c-0.059-0.312-0.134-0.622-0.205-0.931c-0.869-3.809,2.231-7.699,5.905-8.314
								C608.287,330.576,611.676,333.368,612.547,337.187L612.547,337.187z"/>
						</g>
					</g>
				</g>
				<g>
					<g>
						<g>
							<path fill="#A0A2A5" d="M481.908,612.9l-0.013-0.055c0.437-0.113,0.651-0.167,0.671-0.171h0.001l0.026-0.005l0.006,0.027
								c0.002,0.009,0.004,0.017-0.023,0.029v0.003c0,0-0.008,0.002-0.02,0.005C482.489,612.76,482.321,612.804,481.908,612.9z"/>
						</g>
						<g>
							
								<rect x="535.687" y="564.47" transform="matrix(0.9377 0.3473 -0.3473 0.9377 229.4079 -150.9208)" fill="#A0A2A5" width="0.056" height="0.059"/>
						</g>
						<g>
							<path fill="#A0A2A5" d="M541.984,472.399l-0.005-0.056c0.134-0.014,0.219-0.02,0.25-0.021l0.003,0.057L541.984,472.399z"/>
						</g>
						<g>
							<path fill="#A0A2A5" d="M556.089,475.62l-0.017-0.054c0.106-0.034,0.455-0.146,0.476-0.15l0.026-0.004l0.006,0.025
								c0.003,0.01,0.005,0.018-0.022,0.031v0.002c0,0-0.004,0.001-0.009,0.003C556.5,475.496,556.379,475.536,556.089,475.62z"/>
						</g>
						<g>
							<path fill="#A0A2A5" d="M591.798,431.74L591.798,431.74L591.798,431.74l-0.055-0.013c0.001-0.002,0.001-0.005,0.002-0.007
								c0.001-0.006,0.003-0.012,0.004-0.018c0.02-0.076,0.045-0.186,0.081-0.332c0.004-0.018,0.009-0.036,0.013-0.055l0.05-0.206
								c0.001-0.004,0.002-0.008,0.003-0.012l0.055,0.013c-0.025,0.104-0.047,0.193-0.065,0.272
								C591.855,431.502,591.827,431.621,591.798,431.74z"/>
						</g>
						<g>
							<path fill="#A0A2A5" d="M591.768,431.867l-0.055-0.01c0,0,0.003-0.018,0.011-0.048l0,0l0,0v-0.001l0.055,0.014
								C591.771,431.854,591.768,431.867,591.768,431.867z"/>
						</g>
					</g>
					<g>
						<path fill="#A0A2A5" d="M542.198,477.994l-0.002-0.056l0.036-0.002c0.239-0.011,0.338-0.017,0.354-0.017l0.002,0.057
							c-0.039,0.002-0.08,0.004-0.12,0.006C542.396,477.986,542.3,477.99,542.198,477.994L542.198,477.994L542.198,477.994z"/>
					</g>
				</g>
			</g>
		</g>
		<g>
			<g>
				<g>
					<g>
						<polygon fill="#3B455A" points="293.285,595.551 137.589,570.107 171.326,363.568 327.023,389.012 						"/>
					</g>
					<g opacity="0.26">
						<polygon fill="#040909" points="150.654,563.133 152.984,563.514 289.787,590.223 318.096,394.307 311.407,395.09 						"/>
					</g>
					<g>
						<polygon fill="#F7F7F7" points="286.882,585.395 146.89,562.518 178.104,371.43 318.096,394.307 						"/>
					</g>
					<g opacity="0.05">
						<polygon points="177.462,370.575 278.153,387.03 163.531,454.811 						"/>
					</g>
					<g>
						<g opacity="0.12">
							
								<rect x="216.999" y="381.821" transform="matrix(0.9869 0.1613 -0.1613 0.9869 65.2861 -34.9286)" width="61.606" height="5.749"/>
						</g>
						<g>
							<g>
								<path fill="#BEC6CC" d="M269.006,367.629l-0.943-0.154l0.103-0.632c0.973-5.957-3.817-11.697-10.7-12.822l-9.065-1.481
									c-6.882-1.125-13.25,2.792-14.224,8.749l-0.103,0.632l-0.943-0.154c-6.883-1.125-13.251,2.792-14.224,8.749l-1.969,12.05
									l60.799,9.936l1.968-12.05C280.679,374.494,275.889,368.753,269.006,367.629z M259.037,366.254l-16.019-2.618
									c-1.638-0.268-2.76-1.818-2.494-3.446s1.823-2.741,3.46-2.473l16.019,2.618c1.638,0.268,2.76,1.817,2.494,3.446
									C262.231,365.409,260.675,366.522,259.037,366.254z"/>
							</g>
						</g>
					</g>
				</g>
				<g opacity="0.47">
					<g>
						<path fill="#C0C4C9" d="M208.493,431.234c-6.852-1.119-13.703-2.239-20.554-3.358c-0.578-0.095-1.15,0.313-1.244,0.889
							c-1.113,6.811-2.225,13.621-3.337,20.432c-0.094,0.575,0.316,1.145,0.896,1.239c6.852,1.119,13.703,2.239,20.554,3.358
							c0.314,0.052,0.571-0.023,0.77-0.166c0.015-0.009,0.028-0.019,0.042-0.028c0.008-0.006,0.016-0.012,0.016-0.012
							c0.21-0.147,0.365-0.367,0.417-0.683c1.112-6.811,2.225-13.621,3.337-20.432C209.483,431.898,209.073,431.329,208.493,431.234
							z M204.085,451.491c-6.138-1.003-12.275-2.006-18.412-3.009c0.996-6.102,1.993-12.202,2.989-18.304
							c6.138,1.003,12.275,2.006,18.413,3.009C206.078,439.289,205.082,445.391,204.085,451.491z"/>
					</g>
					<g>
						<path fill="#C0C4C9" d="M202.322,469.012c-6.852-1.12-13.702-2.24-20.554-3.359c-0.579-0.094-1.15,0.313-1.244,0.89
							c-1.112,6.811-2.225,13.621-3.337,20.432c-0.094,0.575,0.317,1.144,0.896,1.238c6.851,1.12,13.703,2.239,20.553,3.359
							c0.314,0.052,0.572-0.023,0.771-0.167c0.014-0.008,0.028-0.019,0.042-0.027c0.008-0.006,0.016-0.012,0.023-0.018
							c0.202-0.142,0.357-0.362,0.409-0.678c1.113-6.811,2.225-13.621,3.337-20.432
							C203.313,469.676,202.902,469.106,202.322,469.012z M197.914,489.268c-6.138-1.003-12.274-2.006-18.412-3.009
							c0.996-6.101,1.993-12.202,2.989-18.304c6.138,1.004,12.275,2.007,18.413,3.01
							C199.907,477.065,198.911,483.167,197.914,489.268z"/>
					</g>
					<g>
						<path fill="#C0C4C9" d="M196.151,506.788c-6.851-1.119-13.702-2.239-20.554-3.358c-0.578-0.095-1.15,0.313-1.244,0.889
							c-1.112,6.811-2.225,13.621-3.337,20.432c-0.094,0.575,0.317,1.145,0.897,1.239c6.851,1.12,13.702,2.239,20.553,3.358
							c0.314,0.052,0.572-0.023,0.771-0.166c0.014-0.008,0.027-0.019,0.041-0.028c0.008-0.006,0.016-0.011,0.023-0.018
							c0.202-0.142,0.357-0.361,0.409-0.677c1.112-6.811,2.225-13.621,3.337-20.432
							C197.142,507.452,196.731,506.883,196.151,506.788z M191.743,527.045c-6.137-1.003-12.274-2.006-18.412-3.01
							c0.996-6.101,1.993-12.201,2.989-18.303c6.138,1.003,12.275,2.006,18.413,3.01
							C193.736,514.843,192.74,520.943,191.743,527.045z"/>
					</g>
				</g>
				<g>
					<polygon fill="#D34E4E" points="193.599,436.737 198.579,435.944 200.437,441.068 225.648,428.582 228.188,429.533 
						198.449,446.637 					"/>
				</g>
				<g>
					<polygon fill="#D34E4E" points="185.559,475.192 190.539,474.398 192.396,479.523 217.608,467.037 220.148,467.987 
						190.409,485.092 					"/>
				</g>
				<g>
					<polygon fill="#D34E4E" points="179.291,510.877 184.271,510.084 186.128,515.209 211.34,502.723 213.879,503.673 
						184.14,520.776 					"/>
				</g>
				<g opacity="0.32">
					
						<rect x="206.683" y="523.103" transform="matrix(0.9869 0.1613 -0.1613 0.9869 88.3826 -32.3412)" fill="#8EC3CB" width="73.47" height="10.351"/>
				</g>
				<g opacity="0.32">
					
						<rect x="213.219" y="483.091" transform="matrix(0.9869 0.1613 -0.1613 0.9869 82.0229 -33.9214)" fill="#8EC3CB" width="73.47" height="10.351"/>
				</g>
				<g opacity="0.32">
					
						<rect x="219.755" y="443.079" transform="matrix(0.9869 0.1613 -0.1613 0.9869 75.6424 -35.4947)" fill="#8EC3CB" width="73.469" height="10.352"/>
				</g>
			</g>
		</g>
		<g>
			<g>
				<path fill="#E0E0E0" d="M809.053,506.604l-70.595,17.13c-26.107,6.335-52.348-9.444-58.61-35.243l0,0
					c-6.262-25.8,9.826-51.85,35.933-58.185l70.417-17.087L809.053,506.604z"/>
			</g>
			<g>
				<path fill="#3B455A" d="M811.545,505.998l79.373-19.422c23.989-5.821,38.718-29.989,32.895-53.979l-1.592-6.559
					c-5.822-23.986-29.986-38.713-53.975-32.892l-79.378,19.423L811.545,505.998z"/>
			</g>
			<g>
				<g>
					<path fill="#3B455A" d="M769.907,458.56c-5.979,1.451-11.958,2.901-17.937,4.353c-0.561,0.136-1.12,0.271-1.68,0.407
						c-1.045-4.303-2.09-8.605-3.134-12.909c-0.524-2.158-1.048-4.317-1.572-6.477c-0.175-0.719-0.94-1.181-1.67-1.004
						c-3.716,0.902-7.432,1.804-11.147,2.705c-0.728,0.177-1.198,0.937-1.023,1.658c1.434,5.908,2.868,11.816,4.303,17.725
						c0.134,0.554,0.268,1.107,0.402,1.66c-4.354,1.057-8.708,2.113-13.063,3.17c-2.185,0.53-4.369,1.061-6.555,1.59
						c-0.728,0.178-1.198,0.938-1.023,1.658c0.892,3.672,1.783,7.344,2.674,11.017c0.1,0.407,0.328,0.68,0.613,0.837
						c0.275,0.188,0.633,0.27,1.057,0.167c5.979-1.451,11.958-2.901,17.938-4.353c0.56-0.136,1.119-0.271,1.68-0.408
						c1.044,4.303,2.089,8.606,3.133,12.909c0.524,2.159,1.049,4.318,1.572,6.478c0.175,0.719,0.94,1.181,1.67,1.004
						c3.716-0.902,7.432-1.804,11.147-2.705c0.413-0.101,0.689-0.328,0.85-0.611c0.191-0.273,0.276-0.628,0.174-1.047
						c-1.434-5.908-2.868-11.816-4.302-17.725c-0.135-0.554-0.27-1.107-0.403-1.661c4.354-1.057,8.709-2.112,13.063-3.169
						c2.185-0.53,4.37-1.061,6.555-1.591c0.728-0.177,1.198-0.937,1.023-1.657c-0.892-3.672-1.782-7.345-2.674-11.017
						C771.402,458.844,770.637,458.383,769.907,458.56z"/>
				</g>
			</g>
		</g>
		<g>
			<g>
				<polygon fill="#C1796B" points="613.662,428.102 604.638,430.954 597.293,426.99 595.662,428.119 596.972,430.184 
					589.934,428.638 584.734,431.315 583.609,439.017 587.585,446.006 595.35,446.311 603.526,442.005 616.049,438.635 				"/>
			</g>
			<g>
				<path fill="#474EBB" d="M605.988,428.727c14.016-3.287,28.031-6.573,42.047-9.859c3.772-0.885,7.686-1.075,11.458-1.988
					c5.517-1.335,7.027-1.8,7.803-7.061c2.247-15.248-0.608-31.067,1.694-46.087c5.536-0.549,10.88-1.862,16.53-1.787
					c9.228,0.122,8.427,6.469,8.946,13.541c0.615,8.388,0.982,16.802,1.04,25.212c0.048,6.97,2.349,37.196-7.89,39.407
					c-7.337,1.608-81.273,5.545-81.242,7.062C606.362,446.557,605.988,428.727,605.988,428.727z"/>
			</g>
		</g>
		<g>
			<g>
				<path fill="#C1796B" d="M202.99,455.141c1.759-0.551,14.816,2.728,13.952,3.869c-0.942,1.246-2.123,2.235-3.312,3.296
					c3.721,2.271,15.371,6.221,7.062,10.443c-3.601,1.829-13.188-0.743-16.034-3.179c-0.064-0.055-0.129-0.111-0.193-0.166
					l-4.621-12.352C200.554,456.251,201.514,455.603,202.99,455.141z"/>
			</g>
			<g>
				<path fill="#8EC3CB" d="M147.955,419.254l51.83,37.641l0.06,0.158l4.62,12.352l1.2,3.208
					c-27.914-3.618-30.34-11.036-56.688-22.429L147.955,419.254z"/>
			</g>
		</g>
	</g>
</g>
</svg>
