<?xml version="1.0" encoding="utf-8"?>
<!-- Generator: Adobe Illustrator 16.0.0, SVG Export Plug-In . SVG Version: 6.00 Build 0)  -->
<!DOCTYPE svg PUBLIC "-//W3C//DTD SVG 1.1//EN" "http://www.w3.org/Graphics/SVG/1.1/DTD/svg11.dtd">
<svg version="1.1" xmlns="http://www.w3.org/2000/svg" xmlns:xlink="http://www.w3.org/1999/xlink" x="0px" y="0px" width="3710px"
	 height="3710px" viewBox="0 0 3710 3710" enable-background="new 0 0 3710 3710" xml:space="preserve">
<g id="Background">
	<g>
		<g>
			<rect fill="#FFFFFF" width="3710" height="3710"/>
		</g>
	</g>
</g>
<g id="Illustration">
	<g>
		<linearGradient id="SVGID_1_" gradientUnits="userSpaceOnUse" x1="3595.5391" y1="4075.3584" x2="1133.2773" y2="1017.3835">
			<stop  offset="0" style="stop-color:#B37CFF"/>
			<stop  offset="1" style="stop-color:#F895E7"/>
		</linearGradient>
		<path opacity="0.3" fill="url(#SVGID_1_)" d="M2925.482,2864.319c-56.959,59.264-110.852,97.482-153.434,127.678
			c-500.525,354.939-1092.78,251.477-1218.65,226.209c-185.872-37.311-545.159-109.432-804.915-411.334
			c-392.992-456.754-331.797-1176.356-26.967-1651.376c55.758-86.889,350.29-569.145,948.924-646.482
			c362.286-46.805,784.597,47.595,1090.422,300.823C3402.816,1341.389,3357.115,2415.215,2925.482,2864.319z"/>
		<g opacity="0.63">
			<linearGradient id="SVGID_2_" gradientUnits="userSpaceOnUse" x1="2445.9902" y1="896.8008" x2="2850.6719" y2="896.8008">
				<stop  offset="0" style="stop-color:#B37CFF"/>
				<stop  offset="1" style="stop-color:#F895E7"/>
			</linearGradient>
			<polygon opacity="0.5" fill="url(#SVGID_2_)" points="2752.246,711.293 2549.955,708.856 2445.99,897.294 2549.955,1084.744 
				2752.246,1080.385 2850.672,895.371 			"/>
			<linearGradient id="SVGID_3_" gradientUnits="userSpaceOnUse" x1="2776.0234" y1="1081.3945" x2="3180.7051" y2="1081.3945">
				<stop  offset="0" style="stop-color:#B37CFF"/>
				<stop  offset="1" style="stop-color:#F895E7"/>
			</linearGradient>
			<polygon opacity="0.5" fill="url(#SVGID_3_)" points="3082.278,895.887 2879.988,893.45 2776.023,1081.889 2879.988,1269.339 
				3082.278,1264.979 3180.705,1079.966 			"/>
			<linearGradient id="SVGID_4_" gradientUnits="userSpaceOnUse" x1="2762.5195" y1="661.8906" x2="3243.2227" y2="661.8906">
				<stop  offset="0" style="stop-color:#B37CFF"/>
				<stop  offset="1" style="stop-color:#F895E7"/>
			</linearGradient>
			<polygon opacity="0.47" fill="url(#SVGID_4_)" points="3126.21,478.9 2885.915,480.242 2762.52,664.894 2885.915,844.881 
				3126.21,837.141 3243.223,655.81 			"/>
		</g>
		<g>
			
				<linearGradient id="SVGID_5_" gradientUnits="userSpaceOnUse" x1="2804.1162" y1="-2541.6563" x2="4165.085" y2="-2541.6563" gradientTransform="matrix(-0.4017 -0.9158 -0.9158 0.4017 1107.9492 5654.5537)">
				<stop  offset="0" style="stop-color:#A737D5"/>
				<stop  offset="1" style="stop-color:#EF497A"/>
			</linearGradient>
			<path fill="url(#SVGID_5_)" d="M2562.896,494.923c32.765,226.421,169.627,1551.843-1051.06,1903.682
				c0,0-314.724-849.38,1019.85-1916.08C2543.361,473.192,2560.755,480.131,2562.896,494.923z"/>
			<path opacity="0.86" fill="#FFFFFF" d="M2453.314,696.902c-15.789,75.459-34.688,150.094-55.061,224.357
				c-20.433,74.239-42.66,147.986-66.711,221.143c-48.152,146.275-103.256,290.39-167.649,430.414
				c-64.521,139.878-138.195,275.981-226.063,402.925c-21.858,31.792-44.932,62.756-68.781,93.105
				c-6.041,7.528-11.893,15.206-18.088,22.61l-18.489,22.293c-12.633,14.603-25.15,29.314-38.312,43.461
				c-51.949,57.187-108.924,109.975-170.697,156.686c-2.951,2.23-7.153,1.648-9.384-1.304c-2.232-2.95-1.648-7.152,1.302-9.384
				l0.022-0.018l0.048-0.034c61.179-45.865,117.799-97.858,169.548-154.352c13.106-13.97,25.587-28.515,38.184-42.952l18.443-22.051
				c6.181-7.323,12.024-14.925,18.055-22.375c23.811-30.043,46.871-60.714,68.736-92.24
				c87.905-125.861,161.9-261.161,226.82-400.377c64.8-139.364,120.4-282.966,169.083-428.797
				c24.315-72.937,46.82-146.482,67.535-220.53c20.646-74.043,39.851-148.592,55.894-223.7l0.012-0.056
				c0.328-1.532,1.836-2.509,3.368-2.182S2453.643,695.369,2453.314,696.902z"/>
		</g>
		<g opacity="0.94">
			
				<linearGradient id="SVGID_6_" gradientUnits="userSpaceOnUse" x1="2110.8252" y1="-4232.6851" x2="3509.5771" y2="-4232.6851" gradientTransform="matrix(-0.2644 -0.9645 -0.9645 0.2644 -966.0908 5748.8311)">
				<stop  offset="0" style="stop-color:#CB236D"/>
				<stop  offset="1" style="stop-color:#4C246D"/>
			</linearGradient>
			<path fill="url(#SVGID_6_)" d="M3050.566,1034.548c-0.461,235.11-59.02,1603.204-1352.688,1778.854
				c0,0-193.302-910.591,1322.806-1796.116C3033.946,1009.539,3050.598,1019.188,3050.566,1034.548z"/>
			<path opacity="0.86" fill="#FFFFFF" d="M2908.93,1223.576c-27.529,72.494-57.873,143.744-89.311,214.542
				c-31.568,70.73-64.73,140.748-99.309,210.064c-34.531,69.339-70.806,137.814-108.569,205.46l-14.134,25.386l-14.5,25.177
				l-14.517,25.169c-4.804,8.411-9.688,16.774-14.71,25.057l-29.852,49.865l-30.689,49.356
				c-10.102,16.534-20.843,32.664-31.348,48.944c-10.55,16.251-20.996,32.573-32.01,48.52l-32.688,48.076l-33.682,47.396
				l-8.42,11.848l-8.674,11.667l-17.4,23.296l-17.403,23.295c-5.749,7.806-11.929,15.282-17.872,22.939
				c-12.036,15.201-23.919,30.523-36.08,45.625l-37.272,44.673l-9.319,11.167l-9.635,10.898l-19.314,21.763l-19.317,21.765
				c-6.431,7.261-13.287,14.137-19.909,21.226l-20.036,21.113l-10.019,10.558c-3.328,3.53-6.658,7.058-10.175,10.406l-41.599,40.754
				c-56.424,53.349-115.865,103.605-178.988,149.1c-3.004,2.164-7.191,1.483-9.354-1.518c-2.164-3.002-1.482-7.188,1.518-9.353
				l0.021-0.015l0.074-0.053c62.701-44.8,121.893-94.414,178.167-147.18l41.51-40.328c3.509-3.311,6.835-6.806,10.158-10.305
				l10.005-10.456l20.014-20.916c6.617-7.023,13.465-13.83,19.893-21.029l19.311-21.577l19.312-21.577l9.637-10.807l9.323-11.081
				l37.298-44.327c12.173-14.988,24.075-30.204,36.128-45.298c5.952-7.604,12.141-15.024,17.901-22.778l17.437-23.144l17.439-23.144
				l8.693-11.592l8.442-11.777l33.774-47.108l32.794-47.807c11.05-15.856,21.537-32.093,32.129-48.26
				c10.545-16.196,21.327-32.242,31.472-48.696l30.828-49.116l29.994-49.635c5.047-8.245,9.957-16.572,14.783-24.946l14.593-25.061
				l14.579-25.068l14.212-25.281c37.977-67.366,74.479-135.583,109.249-204.68c34.814-69.073,68.226-138.861,100.045-209.372
				c31.684-70.549,62.316-141.671,90.053-213.798l0.018-0.048c0.563-1.464,2.205-2.193,3.667-1.631
				C2908.76,1220.483,2909.492,1222.114,2908.93,1223.576z"/>
		</g>
		<g>
			
				<linearGradient id="SVGID_7_" gradientUnits="userSpaceOnUse" x1="1932.8809" y1="642.7695" x2="-228.9888" y2="3482.3252" gradientTransform="matrix(1 -9.000000e-004 9.000000e-004 1 240.2603 176.3315)">
				<stop  offset="0" style="stop-color:#2B3582"/>
				<stop  offset="1" style="stop-color:#150E42"/>
			</linearGradient>
			<path fill="url(#SVGID_7_)" d="M623.222,776.979l1363.822-1.21c75.241-0.067,137.335,58.842,141.228,133.981l102.424,1977.198
				c3.046,58.8-43.199,108.441-102.066,109.563L565.542,3026.31c-55.314,1.054-100.736-43.471-100.786-98.795l-1.766-1990.021
				C462.912,848.923,534.65,777.058,623.222,776.979z"/>
			<path fill="#FFFFFF" d="M793.96,2992.107c-0.014,0-0.027,0-0.042,0l-174.905-2.106c-58.274-0.703-105.726-48.685-105.776-106.964
				l-0.235-264.071c-0.001-1.852,1.496-3.354,3.346-3.354c0.002,0,0.002,0,0.003,0c1.848,0,3.348,1.498,3.35,3.347l0.235,264.071
				c0.047,54.632,44.529,99.614,99.159,100.271L794,2985.408c1.85,0.023,3.33,1.541,3.309,3.389
				C797.286,2990.636,795.791,2992.107,793.96,2992.107z"/>
			<path fill="#FFFFFF" d="M516.279,2540.513c-1.848,0-3.348-1.498-3.35-3.346l-0.038-42.765c-0.001-1.852,1.497-3.35,3.347-3.353
				c0.001,0,0.001,0,0.003,0c1.848,0,3.348,1.498,3.349,3.347l0.038,42.764c0.002,1.852-1.496,3.353-3.346,3.353
				C516.281,2540.513,516.279,2540.513,516.279,2540.513z"/>
			<g>
				
					<linearGradient id="SVGID_8_" gradientUnits="userSpaceOnUse" x1="3005.2002" y1="1194.0957" x2="1131.5382" y2="2994.1528" gradientTransform="matrix(0.9223 -0.3864 0.3864 0.9223 -1429.3682 855.8818)">
					<stop  offset="0" style="stop-color:#FDF53F"/>
					<stop  offset="1" style="stop-color:#D93C65"/>
				</linearGradient>
				<path fill="url(#SVGID_8_)" d="M627.401,760.947c186.265,25.092,826.773,102.636,1356.243,61.519
					c24.146-1.874,45.119,16.402,46.426,40.586L2137.39,2849.06c1.472,27.23-19.304,50.537-46.524,52.172
					c-222.689,13.377-1139.796,65.138-1466.96,31.164c-19.912-2.068-35.04-18.817-35.175-38.836L574.606,807.456
					C574.415,779.119,599.317,757.164,627.401,760.947z"/>
				<path opacity="0.6" fill="#FFFFFF" d="M647.396,812.449c179.25,24.146,795.64,98.771,1305.172,59.203
					c23.237-1.805,43.42,15.784,44.678,39.057l103.278,1911.224c1.415,26.206-18.577,48.634-44.774,50.208
					c-214.302,12.873-1096.875,62.685-1411.719,29.989c-19.163-1.989-33.721-18.108-33.852-37.373l-13.591-2007.55
					C596.404,829.938,620.368,808.81,647.396,812.449z"/>
				<path opacity="0.78" fill="#FFFFFF" d="M762.636,1004.42l19.399,409.75c0.645,13.629,11.665,24.454,25.303,24.827
					c75.891,2.073,312.37,7.631,445.886,0.552c15.103-0.801,27.041-13.03,27.528-28.146c2.478-76.849,7.851-300.521-9.744-394.006
					c-2.842-15.101-15.834-26.156-31.191-26.68l-448.57-15.289C775.07,974.877,761.87,988.253,762.636,1004.42z"/>
				
					<linearGradient id="SVGID_9_" gradientUnits="userSpaceOnUse" x1="885.251" y1="817.9746" x2="220.5996" y2="1807.4828" gradientTransform="matrix(1 -9.000000e-004 9.000000e-004 1 240.2603 176.3315)">
					<stop  offset="0" style="stop-color:#FDF53F"/>
					<stop  offset="1" style="stop-color:#D93C65"/>
				</linearGradient>
				<circle fill="url(#SVGID_9_)" cx="1020.874" cy="1150.691" r="88.087"/>
				
					<linearGradient id="SVGID_10_" gradientUnits="userSpaceOnUse" x1="998.751" y1="894.2188" x2="334.1056" y2="1883.718" gradientTransform="matrix(1 -9.000000e-004 9.000000e-004 1 240.2603 176.3315)">
					<stop  offset="0" style="stop-color:#FDF53F"/>
					<stop  offset="1" style="stop-color:#D93C65"/>
				</linearGradient>
				<path fill="url(#SVGID_10_)" d="M887.305,1409.432l280.634-0.249c17.206-0.016,27.498-19.023,18.22-33.513
					c-23.87-37.277-73.792-92.029-160.164-89.48c-83.245,2.457-132.542,51.997-157.315,87.518
					C858.164,1388.785,868.921,1409.447,887.305,1409.432z"/>
				<g opacity="0.6">
					<path fill="#FFFFFF" d="M1887.472,1039.092c7.369-0.007,13.218-6.039,12.995-13.405l-0.021-0.706
						c-0.222-7.366-6.433-13.495-13.8-13.62l-497.047-8.416c-7.368-0.125-11.389,5.458-8.935,12.407l4.079,11.548
						c2.454,6.948,10.491,12.629,17.861,12.622L1887.472,1039.092z"/>
				</g>
				<g opacity="0.6">
					<path fill="#FFFFFF" d="M1389.667,1079.334c-7.368-0.124-11.389,5.459-8.935,12.407l4.079,11.549
						c2.455,6.948,10.492,12.628,17.861,12.621l484.867-0.43c7.369-0.007,13.218-6.038,12.996-13.404l-0.021-0.707
						c-0.221-7.366-6.432-13.494-13.799-13.619L1389.667,1079.334z"/>
				</g>
				<g opacity="0.6">
					<path fill="#FFFFFF" d="M1389.736,1156.835c-7.368-0.125-11.389,5.458-8.935,12.407l4.079,11.548
						c2.455,6.948,10.492,12.629,17.861,12.622l484.867-0.431c7.369-0.006,13.218-6.038,12.995-13.404l-0.021-0.706
						c-0.221-7.366-6.432-13.495-13.799-13.62L1389.736,1156.835z"/>
				</g>
				<g opacity="0.6">
					<path fill="#FFFFFF" d="M1935.717,1566.688c7.369-0.007,12.996-6.028,12.504-13.381l-0.051-0.754
						c-0.492-7.353-6.924-13.41-14.293-13.462l-1157.509-8.097c-7.369-0.052-9.638,4.619-5.042,10.38l12.646,15.854
						c4.596,5.761,14.385,10.469,21.754,10.462L1935.717,1566.688z"/>
				</g>
				<g opacity="0.6">
					<path fill="#FFFFFF" d="M776.436,1607.384c-7.369-0.051-9.639,4.62-5.043,10.381l12.646,15.854
						c4.595,5.761,14.385,10.469,21.754,10.462l1129.991-1.003c7.369-0.007,12.997-6.027,12.504-13.381l-0.05-0.753
						c-0.492-7.354-6.924-13.411-14.293-13.463L776.436,1607.384z"/>
				</g>
				<g>
					<path fill="#FFFFFF" d="M929.861,1901.919c-0.078,0-0.157,0-0.235,0l-97.256-0.848c-13.702-0.121-25.017-9.519-26.322-21.864
						l-8.623-81.596c-0.494-4.688,0.958-9.323,4.092-13.056c3.513-4.187,8.837-6.817,14.606-7.216
						c8.198-0.566,19.743-1.561,31.967-2.613c25.71-2.212,57.705-4.966,75.702-5.208c0.135,0,0.273-0.003,0.41-0.003
						c12.607,0,23.453,7.66,26.462,18.746c5.07,18.686,4.657,54.108,3.726,91.849
						C954.093,1892.181,943.111,1901.919,929.861,1901.919z M924.186,1776.215c-0.102,0-0.205,0-0.306,0.003
						c-17.753,0.238-49.614,2.979-75.216,5.185c-12.252,1.054-23.826,2.051-32.08,2.624l0,0c-3.963,0.271-7.586,2.034-9.937,4.838
						c-1.953,2.325-2.862,5.182-2.56,8.04l8.623,81.597c0.946,8.959,9.423,15.779,19.717,15.871l97.257,0.848
						c0.059,0,0.119,0,0.178,0c9.64,0,17.622-6.82,17.831-15.273c0.916-37.226,1.339-72.116-3.495-89.931
						C942.017,1781.981,933.63,1776.215,924.186,1776.215z"/>
					<g opacity="0.6">
						<path fill="#FFFFFF" d="M1020.603,1817.629c-7.369-0.016-11.856,5.801-9.97,12.925l6.004,22.684
							c1.886,7.124,9.458,12.884,16.826,12.801l887.195-10.069c7.369-0.084,13.261-6.181,13.094-13.548l-0.217-9.49
							c-0.168-7.367-6.334-13.407-13.703-13.423L1020.603,1817.629z"/>
					</g>
					
						<linearGradient id="SVGID_11_" gradientUnits="userSpaceOnUse" x1="875.0757" y1="1226.5391" x2="378.454" y2="2074.1555" gradientTransform="matrix(1 -9.000000e-004 9.000000e-004 1 240.2603 176.3315)">
						<stop  offset="0" style="stop-color:#A737D5"/>
						<stop  offset="1" style="stop-color:#EF497A"/>
					</linearGradient>
					<path fill="url(#SVGID_11_)" d="M831.233,1805.613L831.233,1805.613c7.216-4.243,16.511-1.724,20.595,5.584l19.214,34.37
						c1.923,3.44,6.946,3.218,8.558-0.379l47.485-105.969c2.369-5.285,10.24-3.506,10.158,2.286
						c-0.458,32.4-9,93.997-60.724,145.596c0,0-28.54-11.064-51.56-61.495C821.635,1818.321,824.331,1809.672,831.233,1805.613z"/>
					<path fill="#FFFFFF" d="M930.048,2110.364c-0.08,0-0.158,0-0.237,0l-97.256-0.848c-13.702-0.12-25.016-9.522-26.321-21.867
						l-8.623-81.593c-0.494-4.688,0.958-9.323,4.09-13.056c3.513-4.187,8.837-6.816,14.606-7.219h0.002
						c8.192-0.566,19.728-1.558,31.941-2.61c25.718-2.215,57.725-4.97,75.728-5.208c0.139,0,0.28-0.004,0.419-0.004
						c12.604,0,23.446,7.661,26.454,18.747c5.072,18.691,4.657,54.112,3.724,91.849
						C954.279,2100.626,943.299,2110.364,930.048,2110.364z M816.771,1992.469c-3.965,0.274-7.587,2.038-9.939,4.841
						c-1.951,2.325-2.86,5.182-2.558,8.04l8.623,81.593c0.945,8.96,9.423,15.784,19.717,15.875l97.256,0.848c0.059,0,0.12,0,0.178,0
						c9.642,0,17.622-6.817,17.83-15.273c0.917-37.223,1.341-72.109-3.493-89.931c-2.181-8.034-10.565-13.801-20.005-13.801
						c-0.104,0-0.209,0-0.312,0.003c-17.759,0.235-49.634,2.98-75.244,5.185c-12.242,1.054-23.804,2.048-32.054,2.621H816.771z"/>
					<path opacity="0.6" fill="#FFFFFF" d="M827.267,2001.265c20.43-1.415,64.832-5.963,85.892-6.244
						c8.924-0.119,16.755,5.266,18.855,13.002c4.078,15.025,3.566,44.983,2.885,72.633c-0.204,8.281-7.803,14.897-17.089,14.817
						l-77.721-0.678c-9.558-0.084-17.499-6.593-18.396-15.08l-6.891-65.203C814.09,2007.767,819.693,2001.788,827.267,2001.265z"/>
					<g opacity="0.6">
						<path fill="#FFFFFF" d="M1020.788,2026.073c-7.37-0.016-11.856,5.801-9.97,12.925l6.004,22.684
							c1.886,7.123,9.458,12.884,16.826,12.8l887.195-10.069c7.368-0.084,13.26-6.18,13.092-13.548l-0.216-9.489
							c-0.167-7.367-6.334-13.408-13.703-13.423L1020.788,2026.073z"/>
					</g>
					<path fill="#FFFFFF" d="M930.233,2318.81c-0.08,0-0.159,0-0.237,0l-97.256-0.851c-13.698-0.117-25.015-9.516-26.322-21.864
						l-8.623-81.593c-0.494-4.688,0.958-9.326,4.093-13.059c3.514-4.188,8.837-6.817,14.605-7.216l0,0
						c8.198-0.566,19.743-1.561,31.967-2.614c25.71-2.211,57.705-4.966,75.702-5.207c0.136,0,0.273-0.004,0.41-0.004
						c12.607,0,23.453,7.661,26.462,18.747c5.07,18.686,4.656,54.108,3.726,91.852
						C954.464,2309.071,943.483,2318.81,930.233,2318.81z M924.556,2193.102c-0.102,0-0.205,0.004-0.306,0.004
						c-17.753,0.238-49.614,2.979-75.216,5.185c-12.252,1.054-23.826,2.051-32.08,2.623l0,0c-3.963,0.271-7.584,2.035-9.937,4.835
						c-1.953,2.329-2.862,5.188-2.56,8.047l8.623,81.593c0.947,8.964,9.424,15.784,19.715,15.872l97.258,0.851
						c9.735-0.065,17.799-6.771,18.01-15.273c0.916-37.229,1.338-72.119-3.496-89.934
						C942.387,2198.869,934.001,2193.102,924.556,2193.102z"/>
					<path opacity="0.6" fill="#FFFFFF" d="M827.452,2209.708c20.429-1.414,64.832-5.962,85.892-6.243
						c8.925-0.119,16.756,5.266,18.856,13.002c4.078,15.025,3.566,44.982,2.885,72.633c-0.204,8.281-7.803,14.897-17.09,14.816
						l-77.721-0.678c-9.558-0.083-17.499-6.593-18.395-15.079l-6.891-65.203C814.275,2216.211,819.878,2210.232,827.452,2209.708z"
						/>
					<g opacity="0.6">
						<path fill="#FFFFFF" d="M1020.973,2234.518c-7.369-0.016-11.855,5.8-9.97,12.924l6.004,22.684
							c1.886,7.124,9.458,12.885,16.827,12.801l887.194-10.069c7.369-0.084,13.262-6.181,13.094-13.548l-0.216-9.489
							c-0.168-7.368-6.334-13.408-13.704-13.424L1020.973,2234.518z"/>
					</g>
					<path fill="#FFFFFF" d="M930.417,2527.252c-0.079,0-0.157,0-0.235,0l-97.257-0.848c-13.7-0.121-25.016-9.522-26.323-21.867
						l-8.623-81.593c-0.494-4.688,0.958-9.323,4.091-13.056c3.513-4.187,8.837-6.817,14.605-7.22h0.001
						c8.193-0.565,19.732-1.557,31.947-2.61c25.716-2.211,57.721-4.965,75.722-5.207c12.704-0.06,23.831,7.533,26.873,18.743
						c5.07,18.686,4.656,54.108,3.726,91.849C954.648,2517.514,943.667,2527.252,930.417,2527.252z M817.14,2409.355
						c-3.964,0.275-7.587,2.038-9.939,4.842c-1.952,2.325-2.861,5.181-2.559,8.04l8.623,81.593
						c0.947,8.96,9.424,15.783,19.719,15.875l97.257,0.848c9.792,0.141,17.798-6.769,18.007-15.273
						c0.916-37.226,1.34-72.116-3.495-89.931c-2.205-8.122-10.837-13.975-20.317-13.798c-17.759,0.238-49.63,2.979-75.238,5.185
						c-12.244,1.054-23.809,2.048-32.059,2.62H817.14z"/>
					<path opacity="0.6" fill="#FFFFFF" d="M827.637,2418.152c20.429-1.415,64.832-5.963,85.892-6.243
						c8.924-0.119,16.755,5.265,18.855,13.001c4.078,15.025,3.566,44.983,2.885,72.634c-0.204,8.28-7.804,14.897-17.089,14.816
						l-77.721-0.678c-9.558-0.083-17.498-6.593-18.396-15.08l-6.89-65.203C814.459,2424.655,820.063,2418.677,827.637,2418.152z"/>
					<g opacity="0.6">
						<path fill="#FFFFFF" d="M1021.158,2442.961c-7.369-0.016-11.855,5.801-9.97,12.925l6.004,22.684
							c1.886,7.124,9.458,12.884,16.826,12.801l887.195-10.07c7.369-0.083,13.262-6.18,13.094-13.547l-0.217-9.49
							c-0.168-7.367-6.334-13.408-13.703-13.423L1021.158,2442.961z"/>
					</g>
				</g>
			</g>
			
				<linearGradient id="SVGID_12_" gradientUnits="userSpaceOnUse" x1="1301.0806" y1="127.833" x2="673.7697" y2="953.0458" gradientTransform="matrix(1 -9.000000e-004 9.000000e-004 1 240.2603 176.3315)">
				<stop  offset="0" style="stop-color:#2B3582"/>
				<stop  offset="1" style="stop-color:#150E42"/>
			</linearGradient>
			<path fill="url(#SVGID_12_)" d="M1389.479,506.705c-49.293-34.227-92.128-33.51-122.274-24.586
				c-27.5,8.141-45.304,34.714-42.663,63.271l13.13,141.927l154.754,13.596C1392.427,700.913,1486.151,573.832,1389.479,506.705z
				 M1321.531,621.275c-21.31,0.02-38.6-17.24-38.619-38.55c-0.019-21.311,17.241-38.601,38.55-38.62
				c21.31-0.019,38.6,17.241,38.619,38.552C1360.1,603.967,1342.841,621.257,1321.531,621.275z"/>
			<path fill="#FFFFFF" d="M1253.074,627.21c-1.711,0-3.171-1.306-3.332-3.042l-2.09-22.601c-0.17-1.842,1.184-3.475,3.026-3.645
				c1.84-0.187,3.474,1.188,3.644,3.029l2.09,22.601c0.17,1.842-1.185,3.474-3.026,3.645
				C1253.28,627.207,1253.177,627.21,1253.074,627.21z M1248.977,582.918c-1.711,0-3.171-1.305-3.332-3.042l-1.59-17.16
				c-2.499-27.021,14.481-52.201,40.376-59.869c18.402-5.443,37.37-6.238,56.369-2.365c1.813,0.37,2.983,2.136,2.614,3.951
				c-0.37,1.813-2.153,2.968-3.952,2.611c-17.918-3.651-35.794-2.902-53.128,2.228c-22.838,6.761-37.814,28.979-35.609,52.829
				l1.589,17.161c0.172,1.841-1.184,3.47-3.025,3.644C1249.185,582.915,1249.08,582.918,1248.977,582.918z"/>
			
				<linearGradient id="SVGID_13_" gradientUnits="userSpaceOnUse" x1="1369.8862" y1="180.146" x2="742.5838" y2="1005.3477" gradientTransform="matrix(1 -9.000000e-004 9.000000e-004 1 240.2603 176.3315)">
				<stop  offset="0" style="stop-color:#2B3582"/>
				<stop  offset="1" style="stop-color:#150E42"/>
			</linearGradient>
			<path fill="url(#SVGID_13_)" d="M1026.559,779.232l-0.063-71.362c-0.022-24.634,20.378-44.382,44.999-43.561l492.026,16.421
				c21.836,0.729,39.534,17.948,40.861,39.755l4.172,68.565L1026.559,779.232z"/>
			<path fill="#FFFFFF" d="M1188.776,690.71c-1.848,0-3.349-1.498-3.35-3.347c-0.001-1.852,1.497-3.35,3.347-3.353l21.159-0.02
				c0.002,0,0.002,0,0.004,0c1.848,0,3.348,1.498,3.35,3.346c0.001,1.852-1.497,3.35-3.347,3.354l-21.16,0.02
				C1188.778,690.71,1188.778,690.71,1188.776,690.71z"/>
			<path fill="#FFFFFF" d="M1053.167,756.414c-1.848,0-3.348-1.498-3.349-3.346l-0.027-28.865
				c-0.02-22.094,17.939-40.081,40.033-40.104l77.79-0.068c0.002,0,0.002,0,0.003,0c1.848,0,3.348,1.498,3.35,3.346
				c0.002,1.852-1.497,3.351-3.346,3.354l-77.79,0.068c-18.4,0.017-33.356,15.002-33.34,33.398l0.026,28.865
				c0.002,1.852-1.496,3.35-3.346,3.353C1053.168,756.414,1053.168,756.414,1053.167,756.414z"/>
			<linearGradient id="SVGID_14_" gradientUnits="userSpaceOnUse" x1="1397.377" y1="43.4063" x2="1266.7268" y2="1209.2073">
				<stop  offset="0" style="stop-color:#FDF53F"/>
				<stop  offset="1" style="stop-color:#D93C65"/>
			</linearGradient>
			<path fill="url(#SVGID_14_)" d="M872.37,753.252l860.374-0.787c30.937-0.028,57.405,22.211,62.709,52.689l0.732,4.206
				c5.81,33.385-19.87,63.945-53.755,63.976l-882.693,0.783c-20.279,0.019-36.455-16.923-35.5-37.18l1.863-39.509
				C827.266,772.718,847.63,753.273,872.37,753.252z"/>
		</g>
		<g>
			<linearGradient id="SVGID_15_" gradientUnits="userSpaceOnUse" x1="3407.5918" y1="1627.8643" x2="518.6431" y2="3592.3486">
				<stop  offset="0" style="stop-color:#53D8FF"/>
				<stop  offset="1" style="stop-color:#3840F7"/>
			</linearGradient>
			<path fill="url(#SVGID_15_)" d="M3233.096,1905.149l-25.658,1085.831l-3.982,167.501c0,21.947-17.998,39.286-39.945,39.286
				H1004.521c-21.948,0-39.944-17.339-39.944-39.286l-2.439-167.813l-15.525-1072.417c0-21.947,25.863-64.699,73.227-61.471
				l2110.01-54.572c27.547-0.687,54.199,9.912,73.708,29.386C3223.066,1851.034,3233.748,1877.639,3233.096,1905.149z"/>
			<path opacity="0.6" fill="#FFFFFF" d="M3150.66,3114.64c0,20.472-17.115,37.222-38.033,37.222H1055.953
				c-20.918,0-38.033-16.75-38.033-37.222l-17.114-1157.845c0-20.474,24.622-60.44,69.745-57.438l2010.009-50.95
				c26.246-0.665,51.623,9.231,70.208,27.38c18.587,18.148,28.756,42.962,28.136,68.649L3150.66,3114.64z"/>
			<g>
				<linearGradient id="SVGID_16_" gradientUnits="userSpaceOnUse" x1="517.4092" y1="1334.7285" x2="2318.4561" y2="3396.4004">
					<stop  offset="0" style="stop-color:#53D8FF"/>
					<stop  offset="1" style="stop-color:#3840F7"/>
				</linearGradient>
				<path fill="url(#SVGID_16_)" d="M2215.602,2663.148c-0.738,19.072-15.051,34.241-32,34.312l-1007.606,3.98
					c-19.079,0.079-34.473-15.705-34.344-35.995l0,0c0.128-20.315,15.763-36.22,34.884-36.22h1009.684
					C2203.199,2629.226,2216.34,2644.055,2215.602,2663.148L2215.602,2663.148z"/>
				<linearGradient id="SVGID_17_" gradientUnits="userSpaceOnUse" x1="855.1895" y1="1039.6533" x2="2656.2363" y2="3101.3252">
					<stop  offset="0" style="stop-color:#53D8FF"/>
					<stop  offset="1" style="stop-color:#3840F7"/>
				</linearGradient>
				<path fill="url(#SVGID_17_)" d="M2417.243,2119.626c0.123,20.625-12.862,37.322-29.104,37.495l-1157.616,12.161
					c-26.302,0.279-46.819-20.655-45.58-47.194l0,0c1.237-26.479,23.625-47.366,49.802-47.192l1153.059,7.655
					C2403.998,2082.658,2417.119,2099.038,2417.243,2119.626L2417.243,2119.626z"/>
				<linearGradient id="SVGID_18_" gradientUnits="userSpaceOnUse" x1="292.999" y1="1530.7734" x2="2094.0449" y2="3592.4441">
					<stop  offset="0" style="stop-color:#53D8FF"/>
					<stop  offset="1" style="stop-color:#3840F7"/>
				</linearGradient>
				<path fill="url(#SVGID_18_)" d="M1673.146,2808.389c-0.358,15.938-12.529,28.99-27.209,29.168l-470.051,5.678
					c-15.512,0.188-28.02-12.958-27.913-29.376l0.012-1.849c0.108-16.436,12.813-29.881,28.353-30.016l470.889-4.07
					c14.705-0.127,26.317,12.715,25.958,28.67L1673.146,2808.389z"/>
				<linearGradient id="SVGID_19_" gradientUnits="userSpaceOnUse" x1="591.1318" y1="1270.3184" x2="2392.1865" y2="3331.9993">
					<stop  offset="0" style="stop-color:#53D8FF"/>
					<stop  offset="1" style="stop-color:#3840F7"/>
				</linearGradient>
				<path fill="url(#SVGID_19_)" d="M2122.385,2800.378c-0.263,11.747-9.233,21.368-20.054,21.499l-346.458,4.185
					c-11.434,0.138-20.652-9.551-20.573-21.651l0.009-1.363c0.079-12.114,9.444-22.024,20.897-22.123l347.076-3
					c10.839-0.094,19.397,9.372,19.134,21.132L2122.385,2800.378z"/>
				<linearGradient id="SVGID_20_" gradientUnits="userSpaceOnUse" x1="221.0161" y1="1593.6455" x2="2022.0685" y2="3655.3235">
					<stop  offset="0" style="stop-color:#53D8FF"/>
					<stop  offset="1" style="stop-color:#3840F7"/>
				</linearGradient>
				<path fill="url(#SVGID_20_)" d="M1669.986,2949.189c-0.355,15.802-12.476,28.841-27.095,29.136l-468.073,9.448
					c-15.444,0.312-27.898-12.615-27.792-28.89l0.012-1.833c0.106-16.291,12.756-29.722,28.229-29.981l468.904-7.869
					c14.644-0.245,26.209,12.391,25.855,28.21L1669.986,2949.189z"/>
			</g>
			<path fill="#FFFFFF" d="M3111.395,3167.174h-229.08c-1.633,0-2.955-1.323-2.955-2.956s1.322-2.956,2.955-2.956h229.08
				c29.637,0,54.674-25.419,54.674-55.507v-707.078c0-1.633,1.322-2.956,2.956-2.956c1.632,0,2.956,1.323,2.956,2.956v707.078
				C3171.98,3139.048,3144.234,3167.174,3111.395,3167.174z"/>
			<path fill="#FFFFFF" d="M1003.438,2395.721c-1.633,0-2.956-1.323-2.956-2.956v-413.289c0-43.383,32.702-77.366,74.449-77.366
				h183.687c1.633,0,2.956,1.322,2.956,2.955s-1.323,2.956-2.956,2.956h-183.687c-38.433,0-68.538,31.387-68.538,71.455v413.289
				C1006.394,2394.397,1005.071,2395.721,1003.438,2395.721z"/>
			<g>
				<g>
					<linearGradient id="SVGID_21_" gradientUnits="userSpaceOnUse" x1="-32.96" y1="1280.4121" x2="4623.3735" y2="4505.2241">
						<stop  offset="0" style="stop-color:#53D8FF"/>
						<stop  offset="1" style="stop-color:#3840F7"/>
					</linearGradient>
					<path fill="url(#SVGID_21_)" d="M2441.323,2918.89h-15.601c-4.308,0-8.447,2.106-8.447,5.299v130.072
						c0,3.192,4.14,2.564,8.447,2.564h15.601c4.308,0,9.451,0.628,9.451-2.564v-130.072
						C2450.774,2920.996,2445.631,2918.89,2441.323,2918.89z"/>
					<linearGradient id="SVGID_22_" gradientUnits="userSpaceOnUse" x1="3.3271" y1="1228.125" x2="4659.5635" y2="4452.8696">
						<stop  offset="0" style="stop-color:#53D8FF"/>
						<stop  offset="1" style="stop-color:#3840F7"/>
					</linearGradient>
					<path fill="url(#SVGID_22_)" d="M2556.867,2918.89h-22.427c-6.192,0-8.786,2.106-8.786,5.299v130.072
						c0,3.192,2.594,2.564,8.786,2.564h22.427c6.191,0,8.197,0.628,8.197-2.564v-130.072
						C2565.064,2920.996,2563.059,2918.89,2556.867,2918.89z"/>
					<linearGradient id="SVGID_23_" gradientUnits="userSpaceOnUse" x1="-19.7739" y1="1261.458" x2="4636.4883" y2="4486.2207">
						<stop  offset="0" style="stop-color:#53D8FF"/>
						<stop  offset="1" style="stop-color:#3840F7"/>
					</linearGradient>
					<path fill="url(#SVGID_23_)" d="M2480.325,2918.89h-7.8c-2.154,0-9.928,2.106-9.928,5.299v130.072
						c0,3.192,7.773,2.564,9.928,2.564h7.8c2.154,0,1.978,0.628,1.978-2.564v-130.072
						C2482.303,2920.996,2482.479,2918.89,2480.325,2918.89z"/>
					<linearGradient id="SVGID_24_" gradientUnits="userSpaceOnUse" x1="-9.8599" y1="1247.124" x2="4646.4204" y2="4471.8994">
						<stop  offset="0" style="stop-color:#53D8FF"/>
						<stop  offset="1" style="stop-color:#3840F7"/>
					</linearGradient>
					<path fill="url(#SVGID_24_)" d="M2507.627,2918.89h-7.801c-2.153,0,0.211,2.106,0.211,5.299v130.072
						c0,3.192-2.364,2.564-0.211,2.564h7.801c2.154,0,2.263,0.628,2.263-2.564v-130.072
						C2509.89,2920.996,2509.781,2918.89,2507.627,2918.89z"/>
					<linearGradient id="SVGID_25_" gradientUnits="userSpaceOnUse" x1="17.6123" y1="1207.499" x2="4673.8496" y2="4432.2441">
						<stop  offset="0" style="stop-color:#53D8FF"/>
						<stop  offset="1" style="stop-color:#3840F7"/>
					</linearGradient>
					<path fill="url(#SVGID_25_)" d="M2593.432,2918.89h-7.801c-2.153,0-4.803,2.106-4.803,5.299v130.072
						c0,3.192,2.649,2.564,4.803,2.564h7.801c2.153,0,3.16,0.628,3.16-2.564v-130.072
						C2596.592,2920.996,2595.585,2918.89,2593.432,2918.89z"/>
					<linearGradient id="SVGID_26_" gradientUnits="userSpaceOnUse" x1="35.8081" y1="1181.252" x2="4692.0151" y2="4405.9766">
						<stop  offset="0" style="stop-color:#53D8FF"/>
						<stop  offset="1" style="stop-color:#3840F7"/>
					</linearGradient>
					<path fill="url(#SVGID_26_)" d="M2648.033,2918.89h-7.8c-2.153,0-0.29,2.106-0.29,5.299v130.072
						c0,3.192-1.863,2.564,0.29,2.564h7.8c2.154,0,5.703,0.628,5.703-2.564v-130.072
						C2653.736,2920.996,2650.188,2918.89,2648.033,2918.89z"/>
					<linearGradient id="SVGID_27_" gradientUnits="userSpaceOnUse" x1="26.2085" y1="1194.9609" x2="4682.543" y2="4419.7734">
						<stop  offset="0" style="stop-color:#53D8FF"/>
						<stop  offset="1" style="stop-color:#3840F7"/>
					</linearGradient>
					<path fill="url(#SVGID_27_)" d="M2619.758,2918.89h-9.751c-2.692,0,0.378,2.106,0.378,5.299v130.072
						c0,3.192-3.07,2.564-0.378,2.564h9.751c2.691,0,4.422,0.628,4.422-2.564v-130.072
						C2624.18,2920.996,2622.449,2918.89,2619.758,2918.89z"/>
				</g>
				<g>
					<linearGradient id="SVGID_28_" gradientUnits="userSpaceOnUse" x1="47.8423" y1="1163.8145" x2="4704.1147" y2="4388.584">
						<stop  offset="0" style="stop-color:#53D8FF"/>
						<stop  offset="1" style="stop-color:#3840F7"/>
					</linearGradient>
					<path fill="url(#SVGID_28_)" d="M2690.936,2918.89h-15.601c-4.308,0-11.746,2.106-11.746,5.299v130.072
						c0,3.192,7.438,2.564,11.746,2.564h15.601c4.309,0,12.063,0.628,12.063-2.564v-130.072
						C2702.999,2920.996,2695.244,2918.89,2690.936,2918.89z"/>
					<linearGradient id="SVGID_29_" gradientUnits="userSpaceOnUse" x1="83.3809" y1="1112.4365" x2="4739.7017" y2="4337.2397">
						<stop  offset="0" style="stop-color:#53D8FF"/>
						<stop  offset="1" style="stop-color:#3840F7"/>
					</linearGradient>
					<path fill="url(#SVGID_29_)" d="M2806.479,2918.89h-22.426c-6.191,0-14.057,2.106-14.057,5.299v130.072
						c0,3.192,7.865,2.564,14.057,2.564h22.426c6.193,0,6.869,0.628,6.869-2.564v-130.072
						C2813.348,2920.996,2812.672,2918.89,2806.479,2918.89z"/>
					<linearGradient id="SVGID_30_" gradientUnits="userSpaceOnUse" x1="62.0396" y1="1143.2891" x2="4718.3276" y2="4368.0693">
						<stop  offset="0" style="stop-color:#53D8FF"/>
						<stop  offset="1" style="stop-color:#3840F7"/>
					</linearGradient>
					<path fill="url(#SVGID_30_)" d="M2729.938,2918.89h-7.801c-2.152,0-3.373,2.106-3.373,5.299v130.072
						c0,3.192,1.221,2.564,3.373,2.564h7.801c2.154,0,4.59,0.628,4.59-2.564v-130.072
						C2734.527,2920.996,2732.092,2918.89,2729.938,2918.89z"/>
					<linearGradient id="SVGID_31_" gradientUnits="userSpaceOnUse" x1="71.0225" y1="1130.3633" x2="4727.2744" y2="4355.1187">
						<stop  offset="0" style="stop-color:#53D8FF"/>
						<stop  offset="1" style="stop-color:#3840F7"/>
					</linearGradient>
					<path fill="url(#SVGID_31_)" d="M2757.239,2918.89h-7.8c-2.154,0-1.118,2.106-1.118,5.299v130.072
						c0,3.192-1.036,2.564,1.118,2.564h7.8c2.154,0,2.905,0.628,2.905-2.564v-130.072
						C2760.145,2920.996,2759.394,2918.89,2757.239,2918.89z"/>
					<linearGradient id="SVGID_32_" gradientUnits="userSpaceOnUse" x1="98.4629" y1="1090.7021" x2="4754.7368" y2="4315.4727">
						<stop  offset="0" style="stop-color:#53D8FF"/>
						<stop  offset="1" style="stop-color:#3840F7"/>
					</linearGradient>
					<path fill="url(#SVGID_32_)" d="M2843.043,2918.89h-7.8c-2.153,0-6.132,2.106-6.132,5.299v130.072
						c0,3.192,3.979,2.564,6.132,2.564h7.8c2.154,0,5.773,0.628,5.773-2.564v-130.072
						C2848.816,2920.996,2845.197,2918.89,2843.043,2918.89z"/>
					<linearGradient id="SVGID_33_" gradientUnits="userSpaceOnUse" x1="116.2856" y1="1064.9863" x2="4772.5479" y2="4289.749">
						<stop  offset="0" style="stop-color:#53D8FF"/>
						<stop  offset="1" style="stop-color:#3840F7"/>
					</linearGradient>
					<path fill="url(#SVGID_33_)" d="M2897.646,2918.89h-7.801c-2.153,0-5.561,2.106-5.561,5.299v130.072
						c0,3.192,3.407,2.564,5.561,2.564h7.801c2.153,0,6.345,0.628,6.345-2.564v-130.072
						C2903.991,2920.996,2899.8,2918.89,2897.646,2918.89z"/>
					<linearGradient id="SVGID_34_" gradientUnits="userSpaceOnUse" x1="107.2456" y1="1077.9697" x2="4763.5703" y2="4302.7754">
						<stop  offset="0" style="stop-color:#53D8FF"/>
						<stop  offset="1" style="stop-color:#3840F7"/>
					</linearGradient>
					<path fill="url(#SVGID_34_)" d="M2869.369,2918.89h-9.75c-2.691,0-0.949,2.106-0.949,5.299v130.072
						c0,3.192-1.742,2.564,0.949,2.564h9.75c2.693,0,7.035,0.628,7.035-2.564v-130.072
						C2876.404,2920.996,2872.063,2918.89,2869.369,2918.89z"/>
				</g>
				<g>
					<linearGradient id="SVGID_35_" gradientUnits="userSpaceOnUse" x1="129.2295" y1="1046.3359" x2="4785.4658" y2="4271.0806">
						<stop  offset="0" style="stop-color:#53D8FF"/>
						<stop  offset="1" style="stop-color:#3840F7"/>
					</linearGradient>
					<path fill="url(#SVGID_35_)" d="M2940.549,2918.89h-15.602c-4.308,0-7.162,2.106-7.162,5.299v130.072
						c0,3.192,2.854,2.564,7.162,2.564h15.602c4.307,0,10.734,0.628,10.734-2.564v-130.072
						C2951.283,2920.996,2944.855,2918.89,2940.549,2918.89z"/>
					<linearGradient id="SVGID_36_" gradientUnits="userSpaceOnUse" x1="164.8892" y1="994.7832" x2="4821.1694" y2="4219.5586">
						<stop  offset="0" style="stop-color:#53D8FF"/>
						<stop  offset="1" style="stop-color:#3840F7"/>
					</linearGradient>
					<path fill="url(#SVGID_36_)" d="M3056.091,2918.89h-22.425c-6.193,0-11.445,2.106-11.445,5.299v130.072
						c0,3.192,5.252,2.564,11.445,2.564h22.425c6.192,0,9.481,0.628,9.481-2.564v-130.072
						C3065.572,2920.996,3062.283,2918.89,3056.091,2918.89z"/>
					<linearGradient id="SVGID_37_" gradientUnits="userSpaceOnUse" x1="142.9839" y1="1026.377" x2="4799.2993" y2="4251.1768">
						<stop  offset="0" style="stop-color:#53D8FF"/>
						<stop  offset="1" style="stop-color:#3840F7"/>
					</linearGradient>
					<path fill="url(#SVGID_37_)" d="M2979.551,2918.89h-7.801c-2.154,0-4.703,2.106-4.703,5.299v130.072
						c0,3.192,2.549,2.564,4.703,2.564h7.801c2.152,0,7.201,0.628,7.201-2.564v-130.072
						C2986.752,2920.996,2981.703,2918.89,2979.551,2918.89z"/>
					<linearGradient id="SVGID_38_" gradientUnits="userSpaceOnUse" x1="151.9302" y1="1013.4766" x2="4808.2349" y2="4238.2686">
						<stop  offset="0" style="stop-color:#53D8FF"/>
						<stop  offset="1" style="stop-color:#3840F7"/>
					</linearGradient>
					<path fill="url(#SVGID_38_)" d="M3006.852,2918.89h-7.801c-2.153,0-2.446,2.106-2.446,5.299v130.072
						c0,3.192,0.293,2.564,2.446,2.564h7.801c2.154,0,5.518,0.628,5.518-2.564v-130.072
						C3012.369,2920.996,3009.006,2918.89,3006.852,2918.89z"/>
				</g>
			</g>
			<linearGradient id="SVGID_39_" gradientUnits="userSpaceOnUse" x1="2674.9834" y1="1401.1904" x2="2810.6394" y2="2913.4937">
				<stop  offset="0" style="stop-color:#53D8FF"/>
				<stop  offset="1" style="stop-color:#3840F7"/>
			</linearGradient>
			<path fill="url(#SVGID_39_)" d="M3010.162,2252.687h-194.635v-194.635c0-8.13-6.591-14.72-14.721-14.72h-88.321
				c-8.13,0-14.72,6.59-14.72,14.72v194.635h-194.635c-8.131,0-14.721,6.59-14.721,14.72v88.321c0,8.131,6.59,14.721,14.721,14.721
				h194.635v194.634c0,8.131,6.59,14.721,14.72,14.721h88.321c8.13,0,14.721-6.59,14.721-14.721v-194.634h194.635
				c8.129,0,14.719-6.59,14.719-14.721v-88.321C3024.881,2259.276,3018.291,2252.687,3010.162,2252.687z"/>
		</g>
		<g>
			<g>
				
					<linearGradient id="SVGID_40_" gradientUnits="userSpaceOnUse" x1="2130.2588" y1="1840.7246" x2="1612.3076" y2="2503.3977" gradientTransform="matrix(1 0 0 1 -395.8435 0)">
					<stop  offset="0" style="stop-color:#53EAC9"/>
					<stop  offset="0.9964" style="stop-color:#45AED8"/>
				</linearGradient>
				<path fill="url(#SVGID_40_)" d="M1732.017,2128.783l-28.997,7.075c-35.336,10.643-65.188,13.36-90.713,10.659
					c-79.7-8.435-117.112-69.833-146.734-108.879c-39.108-51.551-82.288-42.646-82.288-42.646l26.427,113.75
					c59.132,94.224,143.712,98.704,200.569,87.935c36.194-6.855,61.156-19.888,61.156-19.888
					C1737.998,2157.41,1732.017,2128.783,1732.017,2128.783z"/>
				
					<linearGradient id="SVGID_41_" gradientUnits="userSpaceOnUse" x1="1296.6968" y1="1569.2539" x2="932.7057" y2="2034.9485" gradientTransform="matrix(0.9678 0.2516 -0.2516 0.9678 1022.8271 216.9004)">
					<stop  offset="0" style="stop-color:#F9B776"/>
					<stop  offset="1" style="stop-color:#F47960"/>
				</linearGradient>
				<path fill="url(#SVGID_41_)" d="M1797.636,2184.113c-0.223-5.887-3.11-11.353-7.847-14.854l-46.228-34.183
					c0,0,0.943-6.824,13.799-8.285c12.857-1.46,13.528-15.26,13.528-15.26s-17.86,3.133-44.239,8.606
					c-15.085,3.131-25.619,12.846-31.879,20.592l8.746,20.933c29.333,17.831,61.055,28.029,94.511,32.68L1797.636,2184.113z"/>
			</g>
			
				<linearGradient id="SVGID_42_" gradientUnits="userSpaceOnUse" x1="1688.8271" y1="2697.5557" x2="1519.6425" y2="2937.0173" gradientTransform="matrix(1 0 0 1 -395.8435 0)">
				<stop  offset="0" style="stop-color:#53EAC9"/>
				<stop  offset="0.9964" style="stop-color:#45AED8"/>
			</linearGradient>
			<polygon fill="url(#SVGID_42_)" points="1108.038,2813.593 1337.536,2822.466 1337.536,2738.575 1143.737,2720.83 			"/>
			
				<linearGradient id="SVGID_43_" gradientUnits="userSpaceOnUse" x1="-2993.3879" y1="1496.6396" x2="-2821.9351" y2="1926.7253" gradientTransform="matrix(-1 0 0 1 -1561.2764 0)">
				<stop  offset="0" style="stop-color:#2B3582"/>
				<stop  offset="1" style="stop-color:#150E42"/>
			</linearGradient>
			<path fill="url(#SVGID_43_)" d="M1343.62,1733.24c0,0-58.342,19.448-96.136,102.796c-10.333,22.789-66.444,26.833-72.234,73.581
				c-2.99,24.136-20.85,43.465-44.889,47.149c-59.874,9.177-152.144,40.267-166.907,144.22
				c-11.268,79.346,29.181,109.433,71.631,119.846c31.179,7.648,51.899,37.976,45.593,69.453
				c-6.049,30.191,2.971,65.094,55.275,92.694c117.213,61.849,234.268-146.524,234.268-146.524l23.99-363.833L1343.62,1733.24z"/>
			
				<linearGradient id="SVGID_44_" gradientUnits="userSpaceOnUse" x1="-2563.3936" y1="3219.0527" x2="-2480.1963" y2="3219.0527" gradientTransform="matrix(-1 0 0 1 -1561.2764 0)">
				<stop  offset="0" style="stop-color:#2B3582"/>
				<stop  offset="1" style="stop-color:#150E42"/>
			</linearGradient>
			<path fill="url(#SVGID_44_)" d="M1002.018,3199.101l-4.732,38.902c-0.898,7.38-6.708,13.215-14.096,14.06
				c-12.471,1.424-32.484,2.885-52.064,0.814c-8.595-0.908-14.175-9.611-11.556-17.848c4.773-15.019,13.505-37.562,26.096-50.829
				h43.155C996.8,3184.2,1002.981,3191.18,1002.018,3199.101z"/>
			
				<linearGradient id="SVGID_45_" gradientUnits="userSpaceOnUse" x1="-2914.948" y1="3547.1416" x2="-2795.2205" y2="2147.8242" gradientTransform="matrix(-1 0 0 1 -1561.2764 0)">
				<stop  offset="0" style="stop-color:#F9B776"/>
				<stop  offset="1" style="stop-color:#F47960"/>
			</linearGradient>
			<path fill="url(#SVGID_45_)" d="M1340.025,2743.381l7.283,42.847c0,0-24.392,247.075-28.73,345.905
				c-0.681,15.494,3.328,30.806,11.46,44.013l42.414,68.877l-107.795-63.608l-2.146-13.155l17.646-24.263l-23.113-276.784
				c-1.358-16.261,1.997-32.566,9.664-46.97l22.297-41.888L1340.025,2743.381z"/>
			
				<linearGradient id="SVGID_46_" gradientUnits="userSpaceOnUse" x1="-2949.9236" y1="3203.8633" x2="-2815.303" y2="3203.8633" gradientTransform="matrix(-1 0 0 1 -1561.2764 0)">
				<stop  offset="0" style="stop-color:#2B3582"/>
				<stop  offset="1" style="stop-color:#150E42"/>
			</linearGradient>
			<path fill="url(#SVGID_46_)" d="M1379.551,3255h-34.4c-6.438,0-12.511-2.956-16.438-8.059
				c-10.724-13.935-32.941-41.121-43.566-41.831c-14.302-0.955-12.473,49.89-12.473,49.89h-8.016l-10.155-63.181
				c-2.555-15.896,5.351-31.644,19.625-39.093l0,0c0,0,3.269,24.179,20.997,34.874c17.727,10.693,72.138,48.993,72.138,48.993
				s6.665-0.951,13.981,0.372C1392.097,3238.928,1390.58,3255,1379.551,3255z"/>
			
				<linearGradient id="SVGID_47_" gradientUnits="userSpaceOnUse" x1="-2674.1084" y1="3567.96" x2="-2554.3496" y2="2168.2781" gradientTransform="matrix(-1 0 0 1 -1561.2764 0)">
				<stop  offset="0" style="stop-color:#F9B776"/>
				<stop  offset="1" style="stop-color:#F47960"/>
			</linearGradient>
			<path fill="url(#SVGID_47_)" d="M1192.381,2763.73c0,0-142.898,271.064-165.615,332.952
				c-22.714,61.889-30.672,113.517-30.977,118.406c-0.477,7.64-9.978,14.966-36.169,14.966c-13.517,0-20.137-5.418-23.378-10.662
				c-2.765-4.474-2.909-10.073-0.579-14.79c8.266-16.728,34.498-70.188,44.213-94.435c11.599-28.95,36.55-160.147,50.234-205.763
				c13.684-45.615,29.15-95.097,88.74-140.675C1118.851,2763.73,1159.757,2723.666,1192.381,2763.73z"/>
			
				<linearGradient id="SVGID_48_" gradientUnits="userSpaceOnUse" x1="1844.4702" y1="2019.2412" x2="1558.0881" y2="2424.5823" gradientTransform="matrix(1 0 0 1 -395.8435 0)">
				<stop  offset="0" style="stop-color:#CE1567"/>
				<stop  offset="1" style="stop-color:#7A1DBC"/>
			</linearGradient>
			<path fill="url(#SVGID_48_)" d="M1282.652,2319.579c36.861-156.196-56.519-244.538-56.519-244.538
				c37.725-36.213,95.306-59.79,131.851-72.066c21.671-7.28,45.566-2.308,62.455,13.103c29.352,26.782,70.183,71.944,62.255,110.181
				c-7.123,34.357-72.004,205.794-72.004,205.794S1350.694,2360.445,1282.652,2319.579z"/>
			
				<linearGradient id="SVGID_49_" gradientUnits="userSpaceOnUse" x1="1864.251" y1="2265.0029" x2="1519.7759" y2="2841.1084" gradientTransform="matrix(1 0 0 1 -395.8435 0)">
				<stop  offset="0" style="stop-color:#2B3582"/>
				<stop  offset="1" style="stop-color:#150E42"/>
			</linearGradient>
			<path fill="url(#SVGID_49_)" d="M1200.925,2396.907c15.001-45.192,81.727-77.328,81.727-77.328
				c68.042,40.866,128.038,12.473,128.038,12.473s13.455,51.429,4.168,99.223c-9.287,47.794-67.55,354.953-67.55,354.953
				c-91.803,18.601-232.994-18.715-232.994-18.715C1172.79,2663.694,1185.923,2442.099,1200.925,2396.907z"/>
			
				<linearGradient id="SVGID_50_" gradientUnits="userSpaceOnUse" x1="-2928.0776" y1="2167.832" x2="-2905.5872" y2="2003.2977" gradientTransform="matrix(-1 0 0 1 -1561.2764 0)">
				<stop  offset="0" style="stop-color:#F9B776"/>
				<stop  offset="1" style="stop-color:#F47960"/>
			</linearGradient>
			<path fill="url(#SVGID_50_)" d="M1325.439,1889.528l-29.97,134.614c-2.869,11.856,7.941,9.916,19.928,7.656
				c19.632-3.701,44.935-11.325,53.393-26.601c0.861-1.555,1.292-3.313,1.534-5.071l12.875-93.348
				c1.022-7.404-2.982-14.592-9.816-17.622l-24.845-11.017C1338.972,1873.898,1327.899,1879.356,1325.439,1889.528z"/>
			<g>
				
					<linearGradient id="SVGID_51_" gradientUnits="userSpaceOnUse" x1="-2755.553" y1="1451.5781" x2="-2559.3149" y2="1102.3405" gradientTransform="matrix(-0.8982 -0.4395 -0.4395 0.8982 -462.0313 -530.4199)">
					<stop  offset="0" style="stop-color:#F9B776"/>
					<stop  offset="1" style="stop-color:#F47960"/>
				</linearGradient>
				<path fill="url(#SVGID_51_)" d="M1403.895,1782.215c0,0,25.294,29.062,24.43,85.738c-0.865,56.677-27.461,70.027-49.225,62.998
					c-21.763-7.03-51.955-22.354-69.558-67.853C1291.938,1817.6,1370.258,1745.979,1403.895,1782.215z"/>
				
					<linearGradient id="SVGID_52_" gradientUnits="userSpaceOnUse" x1="-2713.3511" y1="1147.4473" x2="-2615.2322" y2="1393.5763" gradientTransform="matrix(-0.8982 -0.4395 -0.4395 0.8982 -462.0313 -530.4199)">
					<stop  offset="0" style="stop-color:#2B3582"/>
					<stop  offset="1" style="stop-color:#150E42"/>
				</linearGradient>
				<path fill="url(#SVGID_52_)" d="M1343.198,1849.083c0,0,8.928-79.172,69.074-50.729l9.253,16.709
					c0,0,40.211-26.642,12.952-62.089c-27.259-35.448-76.587-41.321-115.625-0.331c-39.038,40.991-57.534,72.167-43.405,107.83
					c14.129,35.663,37.498,14.5,37.498,14.5s-3.259-28.486,8.069-37.33c11.329-8.844,17.502,11.54,17.502,11.54L1343.198,1849.083z"
					/>
				
					<linearGradient id="SVGID_53_" gradientUnits="userSpaceOnUse" x1="-2713.7808" y1="1475.0498" x2="-2517.5439" y2="1125.8143" gradientTransform="matrix(-0.8982 -0.4395 -0.4395 0.8982 -462.0313 -530.4199)">
					<stop  offset="0" style="stop-color:#F9B776"/>
					<stop  offset="1" style="stop-color:#F47960"/>
				</linearGradient>
				<path fill="url(#SVGID_53_)" d="M1332.823,1853.311c0,0,4.828-40.67-18.162-34.782c-22.989,5.89-2.508,38.524,6.115,50.066
					L1332.823,1853.311z"/>
			</g>
			<path opacity="0.44" fill="#FFFFFF" d="M1371.545,1737.57c-14.058,4.606-26.61,13.025-38.017,22.329
				c-11.44,9.365-21.359,20.506-29.731,32.621c-8.384,12.128-15.147,25.366-19.859,39.319c-2.355,6.979-4.223,14.084-5.604,21.344
				c-1.412,7.264-2.596,14.691-4.849,21.979c-2.196,7.251-5.771,14.449-11.248,20.017c-5.356,5.653-11.942,9.75-18.543,13.325
				c-6.627,3.566-13.396,6.659-19.764,10.271c-6.396,3.544-12.226,7.874-17.419,12.951c-10.411,10.133-17.906,23.042-21.689,37.086
				c-2.009,7.052-3.539,14.408-6.192,21.627c-2.584,7.175-6.725,14.34-12.927,19.362c-6.093,5.113-13.429,8.181-20.73,10.288
				c-7.344,2.085-14.774,3.318-22.097,4.571c-14.614,2.305-28.849,6.113-42.421,11.808c-13.512,5.722-26.34,13.214-37.537,22.675
				c-11.194,9.422-20.772,20.89-27.27,33.967c-6.533,13.023-9.617,27.838-7.688,42.277c1.995,14.327,8.345,28.381,19.113,38.146
				c5.335,4.877,11.668,8.714,18.624,10.715c6.973,1.967,14.422,2.215,21.602,1.002c14.322-2.25,28.054-11.421,33.444-25.248
				l1.085,0.403c-5.278,14.411-19.334,24.234-34.161,26.867c-7.441,1.411-15.226,1.32-22.631-0.607
				c-7.415-1.972-14.215-5.905-19.941-10.938c-11.529-10.189-18.208-24.914-20.418-39.893c-2.137-15.139,1.018-30.754,7.718-44.319
				c6.67-13.657,16.5-25.567,27.976-35.366c11.484-9.84,24.596-17.613,38.426-23.585c13.842-5.931,28.535-9.957,43.294-12.386
				c7.329-1.305,14.598-2.574,21.566-4.607c6.933-2.051,13.596-4.948,18.916-9.488c5.365-4.481,9.083-10.557,11.57-17.317
				c2.544-6.744,4.121-13.992,6.23-21.232c4.058-14.667,12.115-28.349,23.137-38.896c5.48-5.293,11.742-9.858,18.389-13.477
				c6.609-3.683,13.417-6.731,19.916-10.173c6.471-3.441,12.714-7.3,17.659-12.456c5.045-5.058,8.349-11.543,10.514-18.47
				c2.202-6.93,3.433-14.233,4.907-21.556c1.452-7.349,3.425-14.655,5.88-21.753c4.919-14.22,11.906-27.677,20.55-39.961
				c8.786-12.165,19.099-23.263,30.89-32.513c11.76-9.185,24.585-17.416,38.995-21.814L1371.545,1737.57z"/>
			<path opacity="0.44" fill="#FFFFFF" d="M1292.427,1839.545c-0.471,9.581-1.041,19.21-2.811,28.748
				c-1.732,9.504-4.523,19.055-9.698,27.557c-2.582,4.221-5.723,8.176-9.364,11.567c-3.624,3.402-7.592,6.321-11.578,9.069
				c-8.045,5.402-15.851,10.611-22.978,16.813c-14.212,12.182-26.151,27.438-29.895,45.684
				c-4.274,18.058-3.111,38.036-11.139,56.907c-4.068,9.343-10.846,17.399-18.744,23.516c-7.917,6.173-16.867,10.682-26.086,14.083
				c-18.579,6.707-37.839,9.068-56.305,13.275c-18.297,4.151-36.622,11.138-49.576,24.691c-6.267,6.679-11.808,14.955-11.916,24.179
				c-0.084,9.266,4.213,18.162,8.431,26.663l-1.019,0.549c-4.727-8.239-9.711-17.017-10.063-27.199
				c-0.149-5.04,1.182-10.096,3.378-14.553c2.182-4.484,5.049-8.55,8.299-12.288c13.417-14.869,32.521-22.595,51.158-27.376
				c18.741-4.95,37.899-7.196,55.419-13.832c8.721-3.302,17.058-7.628,24.23-13.329c7.183-5.682,13.025-12.822,16.589-21.12
				c7.444-16.731,6.664-36.432,11.238-55.611c2.241-9.646,6.395-19.06,12.177-27.116c5.681-8.16,12.721-15.187,20.315-21.32
				c7.526-6.209,15.861-11.448,23.869-16.519c8.017-5.083,15.271-10.949,20.26-18.819c5.182-7.711,8.309-16.767,10.406-25.996
				c2.095-9.263,3.175-18.79,4.247-28.313L1292.427,1839.545z"/>
			
				<linearGradient id="SVGID_54_" gradientUnits="userSpaceOnUse" x1="1866.4922" y1="2083.7842" x2="1160.2777" y2="3083.3503" gradientTransform="matrix(1 0 0 1 -395.8435 0)">
				<stop  offset="0" style="stop-color:#9CFFFB"/>
				<stop  offset="1" style="stop-color:#9BFFFA"/>
			</linearGradient>
			<path fill="url(#SVGID_54_)" d="M1356.498,2127.611l-56.356-124.457c-24.032,6.162-74.636,73.267-74.636,73.267
				s48.824,201.834,0.627,255.609c-42.782,47.733-150.021,397.154-173.578,475.063c-1.144,3.784-0.543,7.882,1.646,11.174
				c2.189,3.293,5.734,5.434,9.667,5.838l117.28,12.073c6.471,0.666,12.466-3.468,14.145-9.752l167.183-626.212
				C1368.927,2176.049,1366.815,2150.396,1356.498,2127.611z"/>
			
				<linearGradient id="SVGID_55_" gradientUnits="userSpaceOnUse" x1="1698.7124" y1="2419.8164" x2="1881.3955" y2="2419.8164" gradientTransform="matrix(1 0 0 1 -395.8435 0)">
				<stop  offset="0" style="stop-color:#53EAC9"/>
				<stop  offset="0.9964" style="stop-color:#45AED8"/>
			</linearGradient>
			<path fill="url(#SVGID_55_)" d="M1483.696,2144.891c0,0,19.818-68.331-70.037-134.188c0,0-38.759-29.507-43.335-10.576
				l31.992,153.222l-99.307,677.339c-0.641,4.369,0.939,8.769,4.213,11.732c3.274,2.964,7.81,4.1,12.093,3.03l24.444-6.112
				c4.909-1.228,8.691-5.148,9.743-10.099c13.9-65.396,106.248-505.681,79.158-534.694
				C1432.66,2294.544,1485.905,2158.455,1483.696,2144.891z"/>
			
				<linearGradient id="SVGID_56_" gradientUnits="userSpaceOnUse" x1="1607.5981" y1="2222.5898" x2="2026.5303" y2="2222.5898" gradientTransform="matrix(1 0 0 1 -395.8435 0)">
				<stop  offset="0" style="stop-color:#9CFFFB"/>
				<stop  offset="1" style="stop-color:#9BFFFA"/>
			</linearGradient>
			<path fill="url(#SVGID_56_)" d="M1225.506,2076.421c0,0-58.732,236.891,66.564,281.919
				c125.297,45.029,285.834-70.479,285.834-70.479s27.41-13.704,43.071-9.788c15.662,3.915,13.704-54.818-15.662-70.48
				c-29.367-15.662-62.649,50.902-62.649,50.902s-275.334,137.171-250.239-98.805
				C1292.426,2159.689,1329.268,2080.337,1225.506,2076.421z"/>
			<g>
				
					<linearGradient id="SVGID_57_" gradientUnits="userSpaceOnUse" x1="1917.4385" y1="2146.6699" x2="2077.6208" y2="2814.0981" gradientTransform="matrix(1 0 0 1 -395.8435 0)">
					<stop  offset="0" style="stop-color:#FDF53F"/>
					<stop  offset="1" style="stop-color:#D93C65"/>
				</linearGradient>
				<path fill="url(#SVGID_57_)" d="M1401.947,2421.049l68.122-237.895c0.772-2.701,3.076-4.671,5.867-4.996
					c12.342-1.439,48.105-5.482,89.398-8.975c49.739-4.207,107.499-7.616,142.016-4.717c4.907,0.412,7.872,5.603,5.689,10.018
					c-19.628,39.709-100.365,201.239-140.795,254.154c-1.339,1.753-3.41,2.777-5.616,2.758l-158.053-1.472
					C1403.975,2429.883,1400.682,2425.471,1401.947,2421.049z"/>
				
					<linearGradient id="SVGID_58_" gradientUnits="userSpaceOnUse" x1="2017.7275" y1="2041.4668" x2="1983.6135" y2="2191.2715" gradientTransform="matrix(1 0 0 1 -395.8435 0)">
					<stop  offset="0" style="stop-color:#53D8FF"/>
					<stop  offset="1" style="stop-color:#3840F7"/>
				</linearGradient>
				<path fill="url(#SVGID_58_)" d="M1572.4,2148.559l49.389-8.229c2.631-0.438,4.785,2.075,3.949,4.607l-4.89,14.815
					c-0.425,1.289-1.55,2.223-2.897,2.402l-47.526,6.349c-2.458,0.328-4.486-1.906-3.92-4.321l3.026-12.935
					C1569.857,2149.854,1570.989,2148.794,1572.4,2148.559z"/>
				
					<linearGradient id="SVGID_59_" gradientUnits="userSpaceOnUse" x1="1999.873" y1="2104.3047" x2="1983.5576" y2="2202.1978" gradientTransform="matrix(1 0 0 1 -395.8435 0)">
					<stop  offset="0" style="stop-color:#53D8FF"/>
					<stop  offset="1" style="stop-color:#3840F7"/>
				</linearGradient>
				<path fill="url(#SVGID_59_)" d="M1535.418,2190.371l4.069-21.193c0.408-2.126,2.163-3.732,4.316-3.95l99.755-10.123
					c3.358-0.341,6.046,2.736,5.259,6.018l-6.343,26.409c-0.507,2.112-2.346,3.639-4.517,3.748l-97.48,4.907
					C1537.303,2196.347,1534.82,2193.49,1535.418,2190.371z"/>
				
					<linearGradient id="SVGID_60_" gradientUnits="userSpaceOnUse" x1="1807.6772" y1="2323.2402" x2="1898.4326" y2="2323.2402" gradientTransform="matrix(1 0 0 1 -395.8435 0)">
					<stop  offset="0" style="stop-color:#F9B776"/>
					<stop  offset="1" style="stop-color:#F47960"/>
				</linearGradient>
				<path fill="url(#SVGID_60_)" d="M1418.405,2363.573c0,0-9.489-39.02-5.661-52.863c3.827-13.844,11.244-31.643,35.964-27.688
					s53.881,14.369,53.881,14.369s-1.473,18.032-20.261,12.214l11.65,9.016c0,0-1.665,14.438-17.535,6.724l10.836,11.956
					c0,0-6.815,11.858-18.491,4.253C1457.113,2333.947,1451.517,2368.272,1418.405,2363.573z"/>
			</g>
			<g>
				<g>
					
						<linearGradient id="SVGID_61_" gradientUnits="userSpaceOnUse" x1="1679.4385" y1="2333.8643" x2="1668.1099" y2="2349.8987" gradientTransform="matrix(1 0 0 1 -395.8435 0)">
						<stop  offset="0" style="stop-color:#53EAC9"/>
						<stop  offset="0.9964" style="stop-color:#45AED8"/>
					</linearGradient>
					<path fill="url(#SVGID_61_)" d="M1318.371,2360.527c-0.05,0-0.101,0-0.151,0c-57.042,0-78.861-43.177-79.073-43.628
						c-0.764-1.606-0.08-1.498,1.528-2.264c1.605-0.756,3.53,0.934,4.299,2.541c0.199,0.415,20.482,42.087,73.542,44.52
						c1.781,0.082,3.158-2.219,3.076-0.438C1321.513,2362.988,1320.085,2360.527,1318.371,2360.527z"/>
				</g>
				<g>
					
						<linearGradient id="SVGID_62_" gradientUnits="userSpaceOnUse" x1="1737.2607" y1="2183.627" x2="1687.6638" y2="2253.8257" gradientTransform="matrix(1 0 0 1 -395.8435 0)">
						<stop  offset="0" style="stop-color:#53EAC9"/>
						<stop  offset="0.9964" style="stop-color:#45AED8"/>
					</linearGradient>
					<path fill="url(#SVGID_62_)" d="M1339.177,2285.689c-0.503,0-1.012-0.116-1.489-0.365
						c-63.438-33.078-47.121-127.489-46.395-131.494c0.319-1.749,2.005-2.924,3.75-2.597c1.752,0.315,2.917,1.995,2.6,3.747
						c-0.169,0.936-16.182,93.749,43.029,124.622c1.58,0.825,2.193,2.772,1.369,4.352
						C1341.466,2285.06,1340.341,2285.689,1339.177,2285.689z"/>
				</g>
			</g>
			
				<linearGradient id="SVGID_63_" gradientUnits="userSpaceOnUse" x1="1769.2305" y1="2054.9033" x2="1658.6185" y2="2211.4619" gradientTransform="matrix(1 0 0 1 -395.8435 0)">
				<stop  offset="0" style="stop-color:#53EAC9"/>
				<stop  offset="0.9964" style="stop-color:#45AED8"/>
			</linearGradient>
			<path fill="url(#SVGID_63_)" d="M1366.141,2146.504c-10.878-34.686-65.999-143.35-65.999-143.35l-22.291,14.345l40.804,127.858
				c1.751,5.488,6.85,9.213,12.61,9.213c3.063,0,5.599,2.378,5.797,5.433l7.065,108.937
				C1344.128,2268.939,1377.019,2181.189,1366.141,2146.504z"/>
			
				<linearGradient id="SVGID_64_" gradientUnits="userSpaceOnUse" x1="1842.6885" y1="2029.752" x2="1705.6796" y2="2223.6724" gradientTransform="matrix(1 0 0 1 -395.8435 0)">
				<stop  offset="0" style="stop-color:#9CFFFB"/>
				<stop  offset="1" style="stop-color:#9BFFFA"/>
			</linearGradient>
			<path fill="url(#SVGID_64_)" d="M1427.573,2114.297c1.748-4.205,1.948-8.892,0.567-13.23l-33.929-106.575l-20.816-16.633
				l-2.293,16.633l18.846,99.581l-6.662,181.494l35.249-97.472c1.721-4.759,1.5-10.005-0.618-14.603l-2.144-4.655
				c-2.249-4.881-2.354-10.481-0.291-15.444L1427.573,2114.297z"/>
		</g>
	</g>
</g>
</svg>
